<svg fill="none" height="42" viewBox="0 0 42 42" width="42" xmlns="http://www.w3.org/2000/svg">
    <g fill="#673de6">
        <path d="m15 12c-2.1973 0-4 1.8027-4 4 0 1.8503 1.2842 3.4056 3 3.8555v9.1445c0 .5523.4477 1 1 1h3c.5523 0 1-.4477 1-1s-.4477-1-1-1h-2v-2h1c.5523 0 1-.4477 1-1s-.4477-1-1-1h-1v-4.1445c1.7158-.4499 3-2.0052 3-3.8555 0-2.1973-1.8027-4-4-4zm0 2c1.1164 0 2 .8836 2 2s-.8836 2-2 2-2-.8836-2-2 .8836-2 2-2z" />
        <g clip-rule="evenodd" fill-rule="evenodd">
            <path d="m21 19c0 .5523.4477 1 1 1h8c.5523 0 1-.4477 1-1v-4c0-.5523-.4477-1-1-1h-8c-.5523 0-1 .4477-1 1zm2-2c0-.5523.4477-1 1-1h4c.5523 0 1 .4477 1 1s-.4477 1-1 1h-4c-.5523 0-1-.4477-1-1z" />
            <path d="m22 22c-.5523 0-1 .4477-1 1v4c0 .5523.4477 1 1 1h8c.5523 0 1-.4477 1-1v-4c0-.5523-.4477-1-1-1zm1 3c0-.5523.4477-1 1-1h4c.5523 0 1 .4477 1 1s-.4477 1-1 1h-4c-.5523 0-1-.4477-1-1z" />
        </g>
    </g>
</svg>