<svg fill="none" height="42" viewBox="0 0 42 42" width="42" xmlns="http://www.w3.org/2000/svg">
    <g fill="#673de6">
        <path d="m12 13c-.552 0-1 .448-1 1v2c0 .552.448 1 1 1h18c.552 0 1-.448 1-1v-2c0-.552-.448-1-1-1zm2 1c.552 0 1 .448 1 1s-.448 1-1 1-1-.448-1-1 .448-1 1-1zm-2 11c-.552 0-1 .448-1 1v2c0 .552.448 1 1 1h18c.552 0 1-.448 1-1v-2c0-.552-.448-1-1-1zm2 1c.552 0 1 .448 1 1s-.448 1-1 1-1-.448-1-1 .448-1 1-1z" />
        <path clip-rule="evenodd" d="m12 19c-.552 0-1 .448-1 1v2c0 .552.448 1 1 1h18c.552 0 1-.448 1-1v-2c0-.552-.448-1-1-1zm2 1c.552 0 1 .448 1 1s-.448 1-1 1-1-.448-1-1 .448-1 1-1z" fill-rule="evenodd" />
    </g>
</svg>