<svg width="43" height="43" viewBox="0 0 43 43" fill="none" xmlns="http://www.w3.org/2000/svg">
    <path d="M21.2173 42.438C20.56 42.4427 19.9114 42.2871 19.3278 41.9846C18.7442 41.6822 18.2431 41.242 17.868 40.7023C17.4899 40.1616 16.9335 39.7712 16.2965 39.5996C15.6594 39.428 14.9822 39.4861 14.3837 39.7637C13.7879 40.0354 13.1357 40.1604 12.4817 40.1284C11.8277 40.0964 11.1908 39.9083 10.6244 39.5798C10.058 39.2512 9.57841 38.7919 9.22587 38.24C8.87333 37.6882 8.65804 37.06 8.59799 36.408C8.54255 35.7446 8.25382 35.1222 7.78307 34.6515C7.31232 34.1807 6.68999 33.892 6.02656 33.8366C5.37451 33.7765 4.74632 33.5612 4.19451 33.2087C3.6427 32.8561 3.18332 32.3766 2.85479 31.8102C2.52626 31.2437 2.33813 30.6069 2.30613 29.9529C2.27413 29.2988 2.39919 28.6466 2.67085 28.0508C2.94867 27.454 3.00752 26.7784 2.83708 26.1424C2.66664 25.5065 2.27779 24.9509 1.73871 24.573C1.20148 24.1944 0.763119 23.6922 0.460532 23.1088C0.157945 22.5253 0 21.8777 0 21.2205C0 20.5633 0.157945 19.9156 0.460532 19.3322C0.763119 18.7488 1.20148 18.2466 1.73871 17.868C2.2794 17.4899 2.66977 16.9335 2.84138 16.2965C3.01299 15.6594 2.95489 14.9822 2.67728 14.3837C2.40562 13.7879 2.28056 13.1357 2.31256 12.4817C2.34456 11.8277 2.53269 11.1908 2.86122 10.6244C3.18975 10.0579 3.64913 9.57841 4.20094 9.22587C4.75274 8.87333 5.38094 8.65804 6.03299 8.59799C6.69642 8.54255 7.31875 8.25382 7.7895 7.78307C8.26025 7.31232 8.54897 6.68999 8.60442 6.02656C8.66446 5.37451 8.87976 4.74632 9.2323 4.19451C9.58484 3.6427 10.0644 3.18332 10.6308 2.85479C11.1972 2.52626 11.8341 2.33813 12.4881 2.30613C13.1422 2.27413 13.7943 2.39919 14.3901 2.67085C14.987 2.94867 15.6626 3.00752 16.2985 2.83708C16.9345 2.66664 17.4901 2.27779 17.868 1.73871C18.2466 1.20148 18.7488 0.763119 19.3322 0.460532C19.9157 0.157945 20.5633 0 21.2205 0C21.8777 0 22.5253 0.157945 23.1088 0.460532C23.6922 0.763119 24.1944 1.20148 24.573 1.73871C24.9511 2.2794 25.5074 2.66977 26.1445 2.84138C26.7816 3.01299 27.4587 2.95489 28.0573 2.67728C28.6531 2.40562 29.3053 2.28056 29.9593 2.31256C30.6133 2.34456 31.2502 2.53269 31.8166 2.86122C32.383 3.18975 32.8626 3.64913 33.2151 4.20094C33.5677 4.75274 33.7829 5.38094 33.843 6.03299C33.8984 6.69642 34.1872 7.31875 34.6579 7.7895C35.1287 8.26025 35.751 8.54897 36.4144 8.60442C37.0665 8.66446 37.6947 8.87976 38.2465 9.2323C38.7983 9.58484 39.2577 10.0644 39.5862 10.6308C39.9147 11.1972 40.1029 11.8341 40.1349 12.4881C40.1669 13.1422 40.0418 13.7943 39.7701 14.3901C39.4923 14.987 39.4335 15.6626 39.6039 16.2985C39.7743 16.9344 40.1632 17.4901 40.7023 17.868C41.2395 18.2466 41.6779 18.7488 41.9805 19.3322C42.283 19.9156 42.441 20.5633 42.441 21.2205C42.441 21.8777 42.283 22.5253 41.9805 23.1088C41.6779 23.6922 41.2395 24.1944 40.7023 24.573C40.1658 24.9516 39.7793 25.5065 39.6101 26.1409C39.4409 26.7753 39.4998 27.449 39.7766 28.0444C40.0482 28.6402 40.1733 29.2924 40.1413 29.9464C40.1093 30.6005 39.9212 31.2373 39.5926 31.8037C39.2641 32.3702 38.8047 32.8497 38.2529 33.2023C37.7011 33.5548 37.0729 33.7701 36.4209 33.8301C35.7574 33.8856 35.1351 34.1743 34.6643 34.6451C34.1936 35.1158 33.9049 35.7381 33.8494 36.4016C33.7894 37.0536 33.5741 37.6818 33.2215 38.2336C32.869 38.7854 32.3895 39.2448 31.823 39.5733C31.2566 39.9019 30.6197 40.09 29.9657 40.122C29.3117 40.154 28.6595 40.0289 28.0637 39.7573C27.4668 39.4795 26.7912 39.4206 26.1553 39.591C25.5194 39.7615 24.9638 40.1503 24.5859 40.6894C24.2099 41.2339 23.7063 41.6779 23.1191 41.9827C22.5318 42.2875 21.8789 42.4439 21.2173 42.438ZM15.5666 38.2144C16.2231 38.2141 16.8701 38.3716 17.453 38.6736C18.0359 38.9757 18.5376 39.4135 18.9158 39.9501C19.1751 40.3189 19.5192 40.6198 19.9192 40.8276C20.3192 41.0353 20.7633 41.1438 21.2141 41.1438C21.6648 41.1438 22.1089 41.0353 22.5089 40.8276C22.9089 40.6198 23.2531 40.3189 23.5123 39.9501C24.0649 39.1639 24.8757 38.5962 25.8037 38.3461C26.7316 38.0959 27.7179 38.179 28.5909 38.5808C28.9999 38.77 29.4483 38.8583 29.8985 38.8382C30.3487 38.8181 30.7874 38.6903 31.178 38.4654C31.5685 38.2405 31.8993 37.9252 32.1427 37.546C32.3861 37.1667 32.5349 36.7345 32.5766 36.2858C32.6593 35.3281 33.0773 34.4303 33.7571 33.7506C34.4368 33.0709 35.3346 32.6529 36.2923 32.5701C36.7373 32.5254 37.1653 32.3754 37.5408 32.1324C37.9163 31.8894 38.2285 31.5604 38.4515 31.1727C38.6746 30.7851 38.8021 30.3498 38.8234 29.9031C38.8448 29.4563 38.7594 29.0109 38.5744 28.6037C38.1693 27.7331 38.0826 26.7479 38.3293 25.8198C38.576 24.8918 39.1405 24.0797 39.9244 23.5251C40.2919 23.2657 40.5917 22.9219 40.7986 22.5225C41.0055 22.1231 41.1135 21.6799 41.1135 21.2301C41.1135 20.7803 41.0055 20.3371 40.7986 19.9378C40.5917 19.5384 40.2919 19.1945 39.9244 18.9351C39.14 18.3795 38.5752 17.5663 38.3286 16.6371C38.0819 15.708 38.1689 14.7217 38.5744 13.8501C38.7636 13.4411 38.8519 12.9927 38.8318 12.5425C38.8117 12.0923 38.6838 11.6535 38.459 11.263C38.2341 10.8725 37.9188 10.5417 37.5395 10.2983C37.1603 10.0549 36.7281 9.90612 36.2794 9.86442C35.3227 9.78192 34.4257 9.36479 33.7461 8.68638C33.0665 8.00797 32.6479 7.11169 32.5637 6.15513C32.5213 5.70891 32.3728 5.27931 32.1305 4.90221C31.8882 4.52511 31.5592 4.21145 31.171 3.98744C30.7827 3.76344 30.3465 3.63558 29.8988 3.61455C29.4511 3.59352 29.0048 3.67993 28.5973 3.86656C27.7255 4.26847 26.7406 4.35287 25.8131 4.10515C24.8857 3.85744 24.074 3.2932 23.5187 2.51013C23.2595 2.1414 22.9153 1.84045 22.5153 1.6327C22.1153 1.42494 21.6712 1.31649 21.2205 1.31649C20.7698 1.31649 20.3256 1.42494 19.9256 1.6327C19.5256 1.84045 19.1815 2.1414 18.9223 2.51013C18.3678 3.2942 17.5561 3.85922 16.6284 4.10702C15.7006 4.35482 14.7153 4.26974 13.8437 3.86656C13.4347 3.67738 12.9863 3.58913 12.5361 3.60922C12.0859 3.62931 11.6471 3.75716 11.2566 3.98202C10.8661 4.20689 10.5352 4.5222 10.2919 4.90146C10.0485 5.28073 9.89969 5.71286 9.85799 6.16156C9.77549 7.11827 9.35837 8.01526 8.67995 8.69485C8.00154 9.37444 7.10527 9.79312 6.14871 9.87728C5.70227 9.92067 5.27266 10.0701 4.89565 10.3131C4.51864 10.5561 4.20514 10.8856 3.98125 11.2743C3.75736 11.663 3.62956 12.0995 3.60849 12.5475C3.58742 12.9956 3.6737 13.4422 3.86013 13.8501C4.2616 14.721 4.34576 15.7048 4.09802 16.6312C3.85028 17.5576 3.28626 18.3681 2.50371 18.9223C2.13497 19.1815 1.83402 19.5256 1.62627 19.9256C1.41852 20.3256 1.31006 20.7698 1.31006 21.2205C1.31006 21.6712 1.41852 22.1153 1.62627 22.5153C1.83402 22.9153 2.13497 23.2595 2.50371 23.5187C3.28777 24.0732 3.85279 24.8848 4.10059 25.8126C4.34839 26.7404 4.26331 27.7257 3.86013 28.5973C3.67095 29.0063 3.5827 29.4547 3.60279 29.9049C3.62288 30.3551 3.75073 30.7939 3.97559 31.1844C4.20046 31.5749 4.51577 31.9058 4.89503 32.1491C5.2743 32.3925 5.70643 32.5413 6.15513 32.583C7.11184 32.6655 8.00883 33.0826 8.68842 33.761C9.36801 34.4394 9.78669 35.3357 9.87085 36.2923C9.91424 36.7387 10.0637 37.1683 10.3067 37.5453C10.5497 37.9223 10.8792 38.2358 11.2679 38.4597C11.6565 38.6836 12.0931 38.8114 12.5411 38.8325C12.9892 38.8536 13.4358 38.7673 13.8437 38.5808C14.3844 38.3344 14.9724 38.2093 15.5666 38.2144Z" fill="white" />
    <path d="M21.2173 38.7801C20.6577 38.7825 20.1059 38.6485 19.6097 38.3897C19.1135 38.131 18.6878 37.7553 18.3694 37.2951C18.0745 36.8729 17.6407 36.5677 17.1438 36.4326C16.6468 36.2974 16.1182 36.3411 15.6501 36.5559C15.1434 36.7927 14.5869 36.9038 14.0281 36.8797C13.4692 36.8557 12.9244 36.6972 12.4399 36.4177C11.9553 36.1382 11.5454 35.746 11.2447 35.2742C10.9441 34.8025 10.7617 34.2652 10.713 33.708C10.6669 33.195 10.4421 32.7145 10.0779 32.3503C9.71365 31.986 9.23312 31.7613 8.72012 31.7151C8.16373 31.666 7.62735 31.4836 7.15636 31.1834C6.68537 30.8831 6.29363 30.4739 6.01427 29.9902C5.73491 29.5065 5.57616 28.9627 5.55144 28.4047C5.52672 27.8467 5.63677 27.2909 5.87226 26.7844C6.08364 26.319 6.12676 25.7947 5.99425 25.301C5.86175 24.8073 5.56184 24.375 5.14583 24.078C4.6895 23.7556 4.31721 23.3284 4.06026 22.8323C3.8033 22.3362 3.66919 21.7856 3.66919 21.2269C3.66919 20.6682 3.8033 20.1177 4.06026 19.6215C4.31721 19.1254 4.6895 18.6982 5.14583 18.3759C5.56854 18.0798 5.87404 17.6449 6.00912 17.1469C6.14421 16.6488 6.10033 16.1192 5.88512 15.6501C5.64962 15.1437 5.53958 14.5879 5.5643 14.0299C5.58902 13.4719 5.74777 12.9281 6.02713 12.4444C6.30649 11.9607 6.69823 11.5514 7.16922 11.2512C7.64021 10.9509 8.17659 10.7685 8.73298 10.7194C9.24598 10.6733 9.72651 10.4485 10.0907 10.0843C10.4549 9.7201 10.6797 9.23958 10.7258 8.72657C10.7749 8.17018 10.9573 7.6338 11.2576 7.16282C11.5578 6.69183 11.9671 6.30008 12.4508 6.02072C12.9345 5.74137 13.4783 5.58261 14.0363 5.55789C14.5943 5.53318 15.1501 5.64322 15.6565 5.87871C16.1219 6.09009 16.6463 6.13321 17.14 6.00071C17.6337 5.8682 18.066 5.5683 18.363 5.15229C18.682 4.69121 19.1088 4.31496 19.6061 4.05618C20.1035 3.7974 20.6566 3.66391 21.2173 3.66729C21.7771 3.66385 22.3292 3.79736 22.8256 4.05619C23.3219 4.31502 23.7475 4.69132 24.0651 5.15229C24.36 5.57449 24.7938 5.87976 25.2907 6.01487C25.7877 6.14998 26.3163 6.10634 26.7844 5.89157C27.2912 5.65474 27.8476 5.54363 28.4064 5.56768C28.9653 5.59173 29.5101 5.75023 29.9946 6.02972C30.4792 6.30922 30.8892 6.70146 31.1898 7.17318C31.4904 7.64491 31.6728 8.18218 31.7215 8.73943C31.7677 9.25243 31.9924 9.73296 32.3567 10.0972C32.7209 10.4614 33.2014 10.6862 33.7144 10.7323C34.2708 10.7814 34.8072 10.9638 35.2782 11.264C35.7491 11.5643 36.1409 11.9736 36.4202 12.4572C36.6996 12.9409 36.8584 13.4848 36.8831 14.0428C36.9078 14.6008 36.7978 15.1565 36.5623 15.663C36.3509 16.1284 36.3078 16.6528 36.4403 17.1464C36.5728 17.6401 36.8727 18.0724 37.2887 18.3694C37.745 18.6911 38.1173 19.1177 38.3743 19.6133C38.6313 20.1089 38.7655 20.659 38.7655 21.2173C38.7655 21.7756 38.6313 22.3257 38.3743 22.8213C38.1173 23.3169 37.745 23.7435 37.2887 24.0651C36.8644 24.3613 36.5574 24.797 36.4211 25.2962C36.2848 25.7954 36.328 26.3266 36.543 26.7973C36.7785 27.3038 36.8885 27.8595 36.8638 28.4175C36.8391 28.9755 36.6803 29.5194 36.401 30.003C36.1216 30.4867 35.7299 30.896 35.2589 31.1962C34.7879 31.4965 34.2515 31.6789 33.6951 31.728C33.1821 31.7741 32.7016 31.9989 32.3374 32.3631C31.9732 32.7273 31.7484 33.2079 31.7023 33.7209C31.6532 34.2772 31.4708 34.8136 31.1705 35.2846C30.8703 35.7556 30.461 36.1473 29.9773 36.4267C29.4936 36.7061 28.9498 36.8648 28.3918 36.8895C27.8338 36.9143 27.278 36.8042 26.7715 36.5687C26.3069 36.359 25.784 36.3168 25.2917 36.4493C24.7994 36.5817 24.3683 36.8806 24.0715 37.2951C23.7525 37.7562 23.3258 38.1325 22.8284 38.3912C22.331 38.65 21.7779 38.7835 21.2173 38.7801ZM16.5694 35.0837C17.1275 35.0821 17.6777 35.2151 18.1734 35.4714C18.6692 35.7276 19.0959 36.0996 19.4173 36.5559C19.6193 36.845 19.8882 37.0811 20.201 37.2441C20.5138 37.4071 20.8613 37.4922 21.214 37.4922C21.5668 37.4922 21.9143 37.4071 22.2271 37.2441C22.5399 37.0811 22.8088 36.845 23.0108 36.5559C23.4804 35.8883 24.1695 35.4068 24.9578 35.1953C25.7462 34.9838 26.5837 35.0558 27.3244 35.3987C27.6446 35.5478 27.996 35.6175 28.3488 35.6019C28.7017 35.5864 29.0456 35.4861 29.3514 35.3095C29.6573 35.133 29.9161 34.8853 30.106 34.5875C30.2959 34.2897 30.4112 33.9505 30.4423 33.5987C30.5145 32.7859 30.8702 32.0243 31.4473 31.4473C32.0243 30.8703 32.7858 30.5145 33.5987 30.4423C33.9496 30.4109 34.2879 30.2955 34.585 30.106C34.8821 29.9165 35.1292 29.6584 35.3057 29.3534C35.4821 29.0484 35.5827 28.7055 35.5989 28.3535C35.615 28.0015 35.5464 27.6508 35.3987 27.3309C35.0552 26.5909 34.9822 25.7538 35.1924 24.9656C35.4027 24.1773 35.8829 23.4878 36.5494 23.0173L36.9287 23.538L36.5558 23.0109C36.8437 22.8086 37.0786 22.54 37.2407 22.2279C37.4029 21.9157 37.4876 21.5691 37.4876 21.2173C37.4876 20.8655 37.4029 20.5189 37.2407 20.2067C37.0786 19.8945 36.8437 19.626 36.5558 19.4237C35.8883 18.9541 35.4068 18.265 35.1953 17.4767C34.9838 16.6884 35.0558 15.8508 35.3987 15.1101C35.5477 14.7899 35.6174 14.4386 35.6019 14.0857C35.5864 13.7329 35.4861 13.389 35.3095 13.0831C35.1329 12.7772 34.8853 12.5184 34.5875 12.3285C34.2897 12.1387 33.9505 12.0233 33.5987 11.9923C32.7858 11.9201 32.0243 11.5643 31.4473 10.9873C30.8702 10.4103 30.5145 9.6487 30.4423 8.83586C30.4123 8.48425 30.2978 8.14509 30.1087 7.84719C29.9195 7.54929 29.6612 7.30146 29.3558 7.12475C29.0503 6.94805 28.7067 6.84769 28.3542 6.83221C28.0017 6.81674 27.6506 6.8866 27.3308 7.03586C26.5909 7.3794 25.7538 7.45239 24.9655 7.2421C24.1773 7.03182 23.4878 6.5516 23.0173 5.88514C22.8152 5.59557 22.5458 5.35943 22.2322 5.19705C21.9187 5.03468 21.5704 4.95092 21.2173 4.953C20.8651 4.95087 20.5176 5.03465 20.2051 5.19707C19.8926 5.3595 19.6244 5.59568 19.4237 5.88514C18.9541 6.55271 18.265 7.03422 17.4767 7.2457C16.6883 7.45717 15.8508 7.38518 15.1101 7.04229C14.7899 6.89324 14.4385 6.82353 14.0857 6.83906C13.7329 6.85458 13.389 6.95488 13.0831 7.13146C12.7772 7.30804 12.5184 7.55572 12.3285 7.85351C12.1386 8.15131 12.0233 8.49047 11.9923 8.84229C11.92 9.65513 11.5643 10.4167 10.9873 10.9937C10.4102 11.5707 9.64867 11.9265 8.83583 11.9987C8.48423 12.0287 8.14507 12.1432 7.84717 12.3323C7.54927 12.5215 7.30143 12.7797 7.12473 13.0852C6.94802 13.3906 6.84767 13.7342 6.83219 14.0868C6.81671 14.4393 6.88657 14.7904 7.03583 15.1101C7.37937 15.8501 7.45236 16.6872 7.24208 17.4754C7.0318 18.2637 6.55158 18.9532 5.88512 19.4237C5.596 19.6258 5.35992 19.8946 5.19691 20.2074C5.0339 20.5202 4.94878 20.8678 4.94878 21.2205C4.94878 21.5732 5.0339 21.9208 5.19691 22.2336C5.35992 22.5464 5.596 22.8152 5.88512 23.0173C6.55268 23.4869 7.0342 24.176 7.24567 24.9643C7.45715 25.7526 7.38516 26.5902 7.04226 27.3309C6.89322 27.6511 6.82351 28.0024 6.83903 28.3553C6.85456 28.7081 6.95485 29.052 7.13144 29.3579C7.30802 29.6638 7.55569 29.9226 7.85349 30.1125C8.15129 30.3023 8.49045 30.4177 8.84226 30.4487C9.6551 30.5209 10.4167 30.8767 10.9937 31.4537C11.5707 32.0307 11.9265 32.7923 11.9987 33.6051C12.0287 33.9567 12.1431 34.2959 12.3323 34.5938C12.5214 34.8917 12.7797 35.1395 13.0852 35.3162C13.3906 35.493 13.7342 35.5933 14.0868 35.6088C14.4393 35.6243 14.7904 35.5544 15.1101 35.4051C15.5676 35.1939 16.0655 35.0843 16.5694 35.0837Z" fill="white" />
    <path d="M15.4315 29.9216H10.7322C10.5617 29.9216 10.3982 29.8538 10.2776 29.7333C10.1571 29.6127 10.0894 29.4492 10.0894 29.2787V18.8451C10.0894 18.6746 10.1571 18.5111 10.2776 18.3906C10.3982 18.27 10.5617 18.2023 10.7322 18.2023H15.4315C15.8424 18.2023 16.2365 18.3655 16.527 18.6561C16.8176 18.9466 16.9808 19.3407 16.9808 19.7516V28.3723C16.9808 28.7832 16.8176 29.1772 16.527 29.4678C16.2365 29.7583 15.8424 29.9216 15.4315 29.9216ZM11.3751 28.6359H15.4315C15.5009 28.6342 15.567 28.6059 15.6161 28.5569C15.6651 28.5078 15.6934 28.4417 15.6951 28.3723V19.7516C15.6934 19.6822 15.6651 19.6161 15.6161 19.567C15.567 19.5179 15.5009 19.4896 15.4315 19.488H11.3751V28.6359Z" fill="white" />
    <path d="M18.3308 29.7159C17.7457 29.7205 17.1765 29.5255 16.7172 29.163C16.2009 28.7489 15.8516 28.1621 15.7337 27.5109C15.7072 27.3732 15.6943 27.2332 15.6951 27.093V19.5587C15.6954 19.4276 15.7358 19.2998 15.8108 19.1923L18.0287 15.978C19.3235 14.0592 19.8848 11.7386 19.6101 9.44014C19.5936 9.31316 19.6153 9.18413 19.6726 9.06959C19.7299 8.95506 19.82 8.86024 19.9315 8.79728C20.3504 8.57888 20.8156 8.46424 21.288 8.463C22.1558 8.463 23.358 8.85514 24.168 10.7323C24.4822 11.5514 24.6202 12.4276 24.573 13.3037C24.5334 13.7811 24.4274 14.2507 24.258 14.6987C24.258 14.8016 24.1872 14.9109 24.1551 15.0201C24.0589 15.3052 23.9858 15.5976 23.9365 15.8944H30.8601C31.4417 15.9011 31.9978 16.1346 32.4097 16.5453C32.8216 16.956 33.0568 17.5114 33.0651 18.093C33.0659 18.5465 32.9268 18.9892 32.6668 19.3608C32.4068 19.7324 32.0385 20.0147 31.6122 20.1694C31.8479 20.5913 31.9402 21.0782 31.8753 21.557C31.8103 22.0358 31.5917 22.4806 31.2522 22.8244C31.1086 22.972 30.944 23.0977 30.7637 23.1973C30.9899 23.5551 31.1102 23.9697 31.1108 24.393C31.1116 24.6829 31.0552 24.97 30.9449 25.2381C30.8346 25.5061 30.6725 25.7498 30.468 25.9551C30.1984 26.2273 29.861 26.4225 29.4908 26.5209C29.632 26.8112 29.7045 27.1301 29.703 27.453C29.7082 27.7444 29.654 28.0339 29.5434 28.3036C29.4329 28.5734 29.2684 28.8177 29.0601 29.0216C28.8576 29.2317 28.6135 29.3974 28.3435 29.5081C28.0734 29.6188 27.7833 29.672 27.4915 29.6644L18.3308 29.7159ZM16.9487 19.758V27.093C16.942 27.1571 16.942 27.2217 16.9487 27.2859C17.012 27.6269 17.1942 27.9344 17.463 28.1537C17.702 28.3428 18.0005 28.4407 18.3051 28.4301L27.4594 28.3787C27.5777 28.3851 27.696 28.3667 27.8067 28.3246C27.9174 28.2825 28.0181 28.2178 28.1022 28.1344C28.1979 28.0479 28.2734 27.9415 28.3233 27.8226C28.3733 27.7038 28.3966 27.5754 28.3915 27.4466C28.39 27.2517 28.3271 27.0623 28.2116 26.9053C28.0962 26.7484 27.9342 26.6318 27.7487 26.5723C27.5782 26.5484 27.4241 26.4578 27.3205 26.3204C27.2168 26.1829 27.1719 26.0099 27.1958 25.8394C27.2197 25.6689 27.3103 25.5149 27.4477 25.4112C27.5852 25.3075 27.7582 25.2627 27.9287 25.2866H28.8994C29.0207 25.2866 29.1407 25.2626 29.2527 25.216C29.3646 25.1694 29.4663 25.1011 29.5517 25.015C29.6372 24.929 29.7047 24.8269 29.7506 24.7146C29.7964 24.6023 29.8195 24.4821 29.8187 24.3609C29.8187 24.117 29.7218 23.8832 29.5494 23.7108C29.377 23.5384 29.1432 23.4416 28.8994 23.4416C28.7289 23.4416 28.5654 23.3738 28.4448 23.2533C28.3243 23.1327 28.2565 22.9692 28.2565 22.7987C28.2565 22.6282 28.3243 22.4647 28.4448 22.3441C28.5654 22.2236 28.7289 22.1559 28.8994 22.1559H29.6837C29.8037 22.1577 29.9228 22.1347 30.0334 22.0883C30.1441 22.0418 30.2439 21.9729 30.3265 21.8859C30.4129 21.8024 30.4818 21.7025 30.5293 21.5922C30.5767 21.4818 30.6018 21.3631 30.603 21.243C30.603 21.1164 30.5778 20.9911 30.5287 20.8744C30.4797 20.7577 30.4079 20.6519 30.3175 20.5633C30.2271 20.4747 30.1199 20.405 30.0023 20.3584C29.8846 20.3117 29.7588 20.289 29.6322 20.2916C29.4618 20.2916 29.2982 20.2238 29.1777 20.1033C29.0571 19.9827 28.9894 19.8192 28.9894 19.6487C28.9872 19.4956 29.0397 19.3467 29.1375 19.2288C29.2353 19.1109 29.372 19.0319 29.523 19.0059H29.6772H30.8601C30.9814 19.0059 31.1014 18.9819 31.2134 18.9353C31.3253 18.8887 31.427 18.8204 31.5124 18.7343C31.5979 18.6483 31.6655 18.5462 31.7113 18.4339C31.7571 18.3216 31.7802 18.2014 31.7794 18.0801C31.7697 17.8406 31.6693 17.6138 31.4987 17.4455C31.328 17.2772 31.0997 17.18 30.8601 17.1737H23.2358C23.0759 17.1745 22.9214 17.1157 22.8025 17.0087C22.6837 16.9017 22.609 16.7543 22.593 16.5951C22.5558 15.9235 22.6587 15.2514 22.8951 14.6216L23.0044 14.2873C23.126 13.9619 23.2081 13.623 23.2487 13.278C23.2929 12.5808 23.1899 11.8821 22.9465 11.2273C22.3037 9.74871 21.513 9.74871 21.2494 9.74871C21.1304 9.74742 21.0117 9.76037 20.8958 9.78728C21.0812 12.2405 20.4334 14.6844 19.0572 16.7237L16.9487 19.758Z" fill="white" />
</svg>