<svg width="39" height="30" viewBox="0 0 39 30" fill="none" xmlns="http://www.w3.org/2000/svg">
    <path d="M38.9152 6.59278L34.3793 20.2233C34.0402 21.194 33.15 21.8411 32.0902 21.8411H14.5826C13.5652 21.8411 12.5902 21.2344 12.2511 20.3446L5.55326 3.23572H1.69565C0.763043 3.23572 0 2.50768 0 1.61786C0 0.728037 0.763043 0 1.69565 0H6.74022C7.46087 0 8.09674 0.444911 8.35109 1.09206L15.2609 18.6054H31.3696L34.9728 7.68483H15.0065C14.0739 7.68483 13.3109 6.9568 13.3109 6.06697C13.3109 5.17715 14.0739 4.44911 15.0065 4.44911H37.3043C37.8554 4.44911 38.3641 4.73224 38.6609 5.13671C39 5.54117 39.0848 6.10742 38.9152 6.59278ZM15.4304 23.9848C14.7098 23.9848 13.9891 24.2679 13.4804 24.7533C12.9717 25.2386 12.675 25.9262 12.675 26.6138C12.675 27.3014 12.9717 27.989 13.4804 28.4743C13.9891 28.9597 14.7098 29.2428 15.4304 29.2428C16.1511 29.2428 16.8717 28.9597 17.3804 28.4743C17.8891 27.989 18.1859 27.3014 18.1859 26.6138C18.1859 25.9262 17.8891 25.2386 17.3804 24.7533C16.8717 24.2679 16.1511 23.9848 15.4304 23.9848ZM30.6489 23.9848C29.9283 23.9848 29.2076 24.2679 28.6989 24.7533C28.1902 25.2386 27.8935 25.9262 27.8935 26.6138C27.8935 27.3014 28.1902 27.989 28.6989 28.4743C29.2076 28.9597 29.9283 29.2428 30.6489 29.2428C31.3696 29.2428 32.0902 28.9597 32.5989 28.4743C33.1076 27.989 33.4043 27.3014 33.4043 26.6138C33.4043 25.9262 33.1076 25.2386 32.5989 24.7533C32.0902 24.2679 31.3696 23.9848 30.6489 23.9848Z" fill="#1E1926" />
</svg>