<svg width="470" height="69" viewBox="0 0 470 69" fill="none" xmlns="http://www.w3.org/2000/svg">
<g style="mix-blend-mode:luminosity" clip-path="url(#clip0_19_322)">
<path d="M103.231 68.0243L104.003 65.3228C104.92 62.1117 104.581 59.1481 103.036 56.9636C101.593 54.9539 99.2406 53.7743 96.3612 53.6359L41.8554 52.9369C41.6844 52.9344 41.5165 52.8903 41.366 52.8082C41.2156 52.7261 41.087 52.6085 40.9913 52.4655C40.8956 52.3224 40.8356 52.1582 40.8165 51.9867C40.7973 51.8152 40.8195 51.6416 40.8812 51.4806C40.9738 51.211 41.1428 50.9748 41.3674 50.8013C41.5919 50.6279 41.8619 50.5248 42.144 50.5049L97.1767 49.7767C103.671 49.4782 110.772 44.1335 113.248 37.6092L116.38 29.3374C116.469 29.1053 116.513 28.8581 116.51 28.6092C116.506 28.4772 116.491 28.3457 116.466 28.216C114.758 20.5221 110.604 13.6023 104.637 8.51034C98.6712 3.4184 91.2192 0.433262 83.4162 0.00945671C75.6132 -0.414349 67.8867 1.7464 61.4132 6.16269C54.9396 10.579 50.0737 17.0089 47.5564 24.4733C44.884 22.4691 41.6624 21.3485 38.3338 21.2654C35.0051 21.1823 31.7325 22.1407 28.9652 24.0091C26.1979 25.8776 24.0715 28.5644 22.8779 31.7009C21.6843 34.8373 21.482 38.2696 22.2988 41.5267C19.056 41.6113 15.8681 42.3901 12.9461 43.8116C10.0241 45.2331 7.43485 47.2648 5.34974 49.7722C3.26463 52.2795 1.7313 55.2053 0.851319 58.3557C-0.0286659 61.506 -0.235221 64.8091 0.245334 68.0461C0.280102 68.3016 0.4051 68.5358 0.597346 68.7057C0.789592 68.8756 1.03616 68.9698 1.29172 68.9709H101.954C102.24 68.9738 102.519 68.8831 102.749 68.7124C102.979 68.5417 103.149 68.3003 103.231 68.0243Z" fill="#F78100"/>
<path d="M121.395 29.9636C120.914 29.9636 120.409 29.9782 119.879 30.0073C119.8 30.0096 119.722 30.0269 119.649 30.0583C119.517 30.1024 119.398 30.1786 119.302 30.2802C119.206 30.3818 119.137 30.5057 119.1 30.6408L116.935 38.1117C116.011 41.3228 116.351 44.2864 117.902 46.4709C118.686 47.5046 119.695 48.3424 120.852 48.9194C122.008 49.4964 123.28 49.7973 124.57 49.7986L136.196 50.5267C136.358 50.5318 136.518 50.5752 136.66 50.6537C136.803 50.7321 136.926 50.8432 137.019 50.9782C137.117 51.1224 137.179 51.2883 137.2 51.4619C137.222 51.6355 137.201 51.8117 137.141 51.9758C137.049 52.2453 136.88 52.4815 136.655 52.655C136.43 52.8285 136.16 52.9316 135.878 52.9515L123.805 53.6796C117.245 53.9855 110.181 59.3228 107.705 65.8398L106.832 68.1408C106.796 68.2371 106.782 68.3408 106.793 68.4434C106.804 68.5459 106.838 68.6445 106.894 68.7311C106.949 68.8176 107.024 68.8897 107.113 68.9415C107.201 68.9933 107.3 69.0234 107.402 69.0292H148.991C149.244 69.0353 149.492 68.9543 149.694 68.7995C149.896 68.6447 150.04 68.4253 150.102 68.1772C151.342 63.7067 151.54 59.0075 150.681 54.4468C149.822 49.8862 147.93 45.5877 145.152 41.8875C142.373 38.1873 138.785 35.1857 134.666 33.1171C130.547 31.0486 126.01 29.9693 121.409 29.9636H121.395Z" fill="#FCAD32"/>
<path d="M197.031 43.4418H203.908V62.4175H215.938V68.4976H197.031V43.4418Z" fill="black"/>
<path d="M223.068 56.068V56.0025C223.068 48.8083 228.841 42.9685 236.476 42.9685C244.111 42.9685 249.812 48.7355 249.812 55.9297V56.0025C249.812 63.1967 244.039 69.0292 236.404 69.0292C228.769 69.0292 223.068 63.2403 223.068 56.068ZM242.79 56.068V56.0025C242.79 52.3617 240.199 49.2379 236.404 49.2379C232.608 49.2379 230.125 52.3107 230.125 55.9297V56.0025C230.125 59.6433 232.716 62.767 236.476 62.767C240.236 62.767 242.79 59.687 242.79 56.068Z" fill="black"/>
<path d="M258.233 57.5243V43.4418H265.226V57.3641C265.226 61.0049 267.03 62.7015 269.801 62.7015C272.572 62.7015 274.377 61.0558 274.377 57.5461V43.4418H281.362V57.3277C281.362 65.4175 276.787 68.9782 269.729 68.9782C262.672 68.9782 258.233 65.3374 258.233 57.5243Z" fill="black"/>
<path d="M291.898 43.4418H301.474C310.343 43.4418 315.489 48.5971 315.489 55.8204V55.8932C315.489 63.1238 310.271 68.4903 301.337 68.4903H291.898V43.4418ZM301.583 62.3738C305.696 62.3738 308.431 60.0801 308.431 56.0316V55.966C308.431 51.9539 305.696 49.6238 301.583 49.6238H298.761V62.3447L301.583 62.3738Z" fill="black"/>
<path d="M325.491 43.4418H345.35V49.5291H332.375V53.7889H344.116V59.5486H332.375V68.4976H325.491V43.4418Z" fill="black"/>
<path d="M354.934 43.4418H361.811V62.4175H373.841V68.4976H354.934V43.4418Z" fill="black"/>
<path d="M391.853 43.267H398.485L409.028 68.4976H401.653L399.842 64.0267H390.258L388.49 68.4976H381.274L391.853 43.267ZM397.879 58.6165L395.115 51.4951L392.286 58.6165H397.879Z" fill="black"/>
<path d="M417.89 43.4418H429.631C433.434 43.4418 436.054 44.4466 437.721 46.1651C438.468 46.9293 439.049 47.8417 439.428 48.8445C439.807 49.8472 439.975 50.9185 439.922 51.9903V52.0631C439.978 53.7247 439.515 55.3621 438.598 56.7435C437.681 58.1248 436.357 59.18 434.813 59.7597L440.737 68.4976H432.799L427.791 60.9102H424.775V68.4976H417.89V43.4418ZM429.314 55.4709C431.659 55.4709 433.009 54.3204 433.009 52.5V52.4272C433.009 50.4539 431.565 49.4563 429.278 49.4563H424.775V55.4709H429.314Z" fill="black"/>
<path d="M449.852 43.4418H469.827V49.3471H456.664V53.1408H468.585V58.6165H456.664V62.5923H470V68.4976H449.852V43.4418Z" fill="black"/>
<path d="M181.963 58.9806C181.492 60.1062 180.7 61.0649 179.687 61.7341C178.674 62.4033 177.487 62.7528 176.276 62.7379C172.509 62.7379 169.926 59.585 169.926 55.9733V55.9005C169.926 52.2597 172.444 49.2015 176.204 49.2015C177.493 49.1937 178.753 49.5893 179.81 50.3339C180.867 51.0785 181.67 52.1354 182.107 53.3592H189.323C188.198 47.3956 183.009 42.9612 176.276 42.9612C168.612 42.9612 162.868 48.7864 162.868 55.9952V56.068C162.868 63.2622 168.54 69.0291 176.204 69.0291C182.756 69.0291 187.88 64.7476 189.23 59.0097L181.963 58.9806Z" fill="black"/>
</g>
<defs>
<clipPath id="clip0_19_322">
<rect width="470" height="69" fill="white"/>
</clipPath>
</defs>
</svg>
