<svg width="117" height="57" viewBox="0 0 117 57" fill="none" xmlns="http://www.w3.org/2000/svg">
<rect width="117" height="57" rx="8" fill="white"/>
<path d="M61.7082 29.6732C65.1744 29.6732 67.9842 26.8633 67.9842 23.3971C67.9842 19.931 65.1744 17.1211 61.7082 17.1211C58.242 17.1211 55.4321 19.931 55.4321 23.3971C55.4321 26.8633 58.242 29.6732 61.7082 29.6732Z" fill="#EF9122"/>
<path d="M55.4321 23.3971C55.4321 19.897 58.2081 17.1211 61.7082 17.1211C65.2083 17.1211 67.9842 19.897 67.9842 23.3971C67.9842 26.8973 65.2083 29.6732 61.7082 29.6732" fill="#F26E21"/>
<path d="M57.3635 18.9315C59.7774 16.5176 63.7603 16.5176 66.1741 18.9315C68.588 21.3454 68.588 25.3282 66.1741 27.7421" fill="#F44500"/>
<path d="M25.3794 17.483H22V29.3109H25.3794C27.1898 29.3109 28.5174 28.8282 29.6037 27.9833C30.9313 26.8971 31.7762 25.2074 31.7762 23.397C31.7762 19.8969 29.2416 17.483 25.3794 17.483ZM28.1554 26.4143C27.4312 27.0178 26.4657 27.3799 25.0173 27.3799H24.2932V19.5348H24.8966C26.345 19.5348 27.3105 19.7762 28.0347 20.5003C28.8795 21.2245 29.3623 22.3107 29.3623 23.397C29.483 24.4832 29.0002 25.6901 28.1554 26.4143ZM32.8624 17.483H35.1556V29.3109H32.8624V17.483ZM40.9489 22.0693C39.5005 21.5866 39.1385 21.2245 39.1385 20.621C39.1385 19.8969 39.8626 19.2934 40.8282 19.2934C41.5523 19.2934 42.1558 19.5348 42.7593 20.2589L43.9662 18.6899C43.0006 17.8451 41.7937 17.3623 40.4661 17.3623C38.4143 17.3623 36.7246 18.8106 36.7246 20.7417C36.7246 22.4314 37.4487 23.1556 39.6212 24.0004C40.5868 24.3625 40.9489 24.4832 41.1902 24.7246C41.673 24.966 41.9144 25.4488 41.9144 25.9315C41.9144 26.8971 41.1902 27.6212 40.104 27.6212C39.0178 27.6212 38.0522 27.0178 37.5694 26.0522L36.1211 27.5005C37.2074 29.0696 38.535 29.7937 40.2247 29.7937C42.6386 29.7937 44.3283 28.2247 44.3283 25.9315C44.3283 23.8797 43.6041 23.0349 40.9489 22.0693Z" fill="#595A5B"/>
<path d="M45.0525 23.3967C45.0525 26.8969 47.8284 29.5521 51.3285 29.5521C52.2941 29.5521 53.1389 29.3107 54.2252 28.8279V26.052C53.2596 27.0175 52.4148 27.3796 51.4492 27.3796C49.1561 27.3796 47.4664 25.6899 47.4664 23.2761C47.4664 20.9829 49.1561 19.1725 51.3285 19.1725C52.4148 19.1725 53.2596 19.5346 54.2252 20.5001V17.7242C53.2596 17.2414 52.4148 17 51.3285 17C47.9491 17.2414 45.0525 20.0173 45.0525 23.3967Z" fill="#3B3D3F"/>
<path d="M73.1737 25.4482L70.0357 17.4824H67.5011L72.4495 29.6724H73.7772L78.967 17.4824H76.4324L73.1737 25.4482ZM79.9325 29.3104H86.5706V27.3793H82.3464V24.1206H86.45V22.0688H82.3464V19.5342H86.5706V17.4824H79.9325V29.3104Z" fill="black"/>
<path d="M93.0884 24.3625C94.8988 24.0004 95.8643 22.7935 95.8643 20.9831C95.8643 18.8106 94.2953 17.483 91.64 17.483H88.1399V29.3109H90.4331V24.6039H90.7952L94.0539 29.3109H96.8299L93.0884 24.3625ZM91.1573 22.9142H90.4331V19.2934H91.1573C92.6056 19.2934 93.4504 19.8969 93.4504 21.1038C93.4504 22.3107 92.6056 22.9142 91.1573 22.9142ZM25.3794 17.483H22V29.3109H25.3794C27.1898 29.3109 28.5174 28.8282 29.6037 27.9833C30.9313 26.8971 31.7762 25.2074 31.7762 23.397C31.7762 19.8969 29.2416 17.483 25.3794 17.483ZM28.1554 26.4143C27.4312 27.0178 26.4657 27.3799 25.0173 27.3799H24.2932V19.5348H24.8966C26.345 19.5348 27.3105 19.7762 28.0347 20.5003C28.8795 21.2245 29.3623 22.3107 29.3623 23.397C29.483 24.4832 29.0002 25.6901 28.1554 26.4143ZM32.8624 17.483H35.1556V29.3109H32.8624V17.483ZM40.9489 22.0693C39.5005 21.5866 39.1385 21.2245 39.1385 20.621C39.1385 19.8969 39.8626 19.2934 40.8282 19.2934C41.5523 19.2934 42.1558 19.5348 42.7593 20.2589L43.9662 18.6899C43.0006 17.8451 41.7937 17.3623 40.4661 17.3623C38.4143 17.3623 36.7246 18.8106 36.7246 20.7417C36.7246 22.4314 37.4487 23.1556 39.6212 24.0004C40.5868 24.3625 40.9489 24.4832 41.1902 24.7246C41.673 24.966 41.9144 25.4488 41.9144 25.9315C41.9144 26.8971 41.1902 27.6212 40.104 27.6212C39.0178 27.6212 38.0522 27.0178 37.5694 26.0522L36.1211 27.5005C37.2074 29.0696 38.535 29.7937 40.2247 29.7937C42.6386 29.7937 44.3283 28.2247 44.3283 25.9315C44.3283 23.8797 43.6041 23.0349 40.9489 22.0693ZM51.4492 29.5523C52.4147 29.5523 53.2596 29.3109 54.3458 28.8282V26.0522C53.3803 27.0178 52.5354 27.3799 51.5699 27.3799C49.2767 27.3799 47.587 25.6901 47.587 23.2763C47.587 22.0693 48.0698 21.1038 48.7939 20.2589L47.2249 18.6899C46.018 19.7762 45.1731 21.4659 45.1731 23.2763C45.0524 26.8971 47.8284 29.5523 51.4492 29.5523Z" fill="#595A5B"/>
<path d="M93.0884 24.3619C94.8988 23.9999 95.8644 22.7929 95.8644 20.9825C95.8644 18.81 94.2954 17.4824 91.6401 17.4824H88.14V29.3104H90.4332V24.6033H90.7953L94.054 29.3104H96.8299L93.0884 24.3619ZM91.1573 22.9136H90.4332V19.2928H91.1573C92.6057 19.2928 93.4505 19.8963 93.4505 21.1032C93.4505 22.3102 92.6057 22.9136 91.1573 22.9136Z" fill="black"/>
<path d="M39.0175 40.2924V33.6543L43.6038 38.3613V34.0164H44.5693V40.6545L39.983 35.9475V40.2924H39.0175ZM49.3971 34.9819H46.8625V36.4302H49.2764V37.3958H46.8625V39.4476H49.3971V40.2924H45.897V34.0164H49.3971V34.9819ZM52.4144 34.9819V40.2924H51.4489V34.9819H50.0005V34.1371H53.8627V34.9819H52.4144ZM55.3111 34.1371L56.8801 38.3613L58.5698 33.8957L60.1388 38.3613L61.8285 34.1371H63.0354L60.2595 40.7752L58.6905 36.3095L57.0008 40.7752L54.3455 34.1371H55.3111ZM63.1561 37.1544C63.1661 36.2932 63.5127 35.4702 64.1217 34.8612C64.7306 34.2523 65.5537 33.9057 66.4148 33.8957C67.276 33.9057 68.099 34.2523 68.708 34.8612C69.317 35.4702 69.6635 36.2932 69.6736 37.1544C69.6635 38.0156 69.317 38.8386 68.708 39.4476C68.099 40.0565 67.276 40.4031 66.4148 40.4131C65.57 40.4131 64.8458 40.1717 64.2424 39.5683C63.5182 38.9648 63.1561 38.2406 63.1561 37.1544ZM64.1217 37.1544C64.1217 37.8786 64.3631 38.3613 64.8458 38.8441C65.3286 39.3269 65.8114 39.5683 66.4148 39.5683C67.0183 39.5683 67.6218 39.3269 68.1045 38.8441C68.5873 38.3613 68.8287 37.8786 68.8287 37.1544C68.8287 36.4302 68.5873 35.9475 68.1045 35.4647C67.6218 34.9819 67.139 34.7405 66.4148 34.7405C65.8114 34.7405 65.2079 34.9819 64.7251 35.4647C64.3631 35.9475 64.1217 36.5509 64.1217 37.1544ZM73.053 37.6372L74.9841 40.2924H73.7771L71.9667 37.7579H71.846V40.2924H70.8805V34.0164H71.9667C72.8116 34.0164 73.4151 34.1371 73.7771 34.4991C74.1392 34.8612 74.3806 35.344 74.3806 35.8268C74.3806 36.3095 74.2599 36.6716 74.0185 36.913C73.7771 37.3958 73.4151 37.6372 73.053 37.6372ZM71.846 36.913H72.0874C72.9323 36.913 73.4151 36.5509 73.4151 35.9475C73.4151 35.344 72.9323 34.9819 72.0874 34.9819H71.7253V36.913H71.846ZM76.7945 36.5509L79.2083 34.0164H80.4153L77.6393 36.7923L80.4153 40.1717H79.2083L76.9152 37.3958L76.6738 37.6372V40.1717H75.7082V33.8957H76.6738V36.5509H76.7945Z" fill="#F26E21"/>
<path d="M84.5189 27.3793H82.3464V25.2068L79.9325 22.7929V29.3104H86.45L84.5189 27.3793ZM75.8289 18.6894L73.1737 25.4482L70.0357 17.4824H67.5011L72.4495 29.6724H73.7772L77.6393 20.4998L75.8289 18.6894Z" fill="#3B3D3F"/>
</svg>
