<svg width="44" height="44" viewBox="0 0 44 44" fill="none" xmlns="http://www.w3.org/2000/svg">
<path d="M38.9167 0.25H5.08333C3.80145 0.25 2.57208 0.759225 1.66565 1.66565C0.759225 2.57208 0.25 3.80145 0.25 5.08333V38.9167C0.25 40.1985 0.759225 41.4279 1.66565 42.3343C2.57208 43.2408 3.80145 43.75 5.08333 43.75H23.5003V26.9281H17.8375V20.3431H23.5003V15.4982C23.5003 9.88187 26.9339 6.81947 31.947 6.81947C33.6367 6.81367 35.3226 6.9026 37.0027 7.07273V12.9462H33.5517C30.8199 12.9462 30.2901 14.2357 30.2901 16.1401V20.3335H36.8151L35.9664 26.9184H30.2515V43.75H38.9186C39.5533 43.75 40.1818 43.625 40.7682 43.3821C41.3546 43.1392 41.8875 42.7832 42.3363 42.3343C42.7851 41.8855 43.1411 41.3527 43.384 40.7663C43.6269 40.1799 43.7519 39.5514 43.7519 38.9167V5.08333C43.7519 3.80145 43.2427 2.57208 42.3363 1.66565C41.4299 0.759225 40.2005 0.25 38.9186 0.25H38.9167Z" fill="#673DE6"/>
</svg>
