<svg width="75" height="75" viewBox="0 0 75 75" fill="none" xmlns="http://www.w3.org/2000/svg">
<g clip-path="url(#clip0_68_243)">
<path d="M72.6562 70.3125H4.6875V60.9375H9.375C9.9966 60.9375 10.5927 60.6906 11.0323 60.251C11.4718 59.8115 11.7188 59.2154 11.7188 58.5938C11.7188 57.9721 11.4718 57.376 11.0323 56.9365C10.5927 56.4969 9.9966 56.25 9.375 56.25H4.6875V49.2188C5.3091 49.2188 5.90524 48.9718 6.34478 48.5323C6.78432 48.0927 7.03125 47.4966 7.03125 46.875C7.03125 46.2534 6.78432 45.6573 6.34478 45.2177C5.90524 44.7782 5.3091 44.5312 4.6875 44.5312V37.5H9.375C9.9966 37.5 10.5927 37.2531 11.0323 36.8135C11.4718 36.374 11.7188 35.7779 11.7188 35.1562C11.7188 34.5346 11.4718 33.9385 11.0323 33.499C10.5927 33.0594 9.9966 32.8125 9.375 32.8125H4.6875V25.7812C5.3091 25.7812 5.90524 25.5343 6.34478 25.0948C6.78432 24.6552 7.03125 24.0591 7.03125 23.4375C7.03125 22.8159 6.78432 22.2198 6.34478 21.7802C5.90524 21.3407 5.3091 21.0938 4.6875 21.0938V14.0625H9.375C9.9966 14.0625 10.5927 13.8156 11.0323 13.376C11.4718 12.9365 11.7188 12.3404 11.7188 11.7188C11.7188 11.0971 11.4718 10.501 11.0323 10.0615C10.5927 9.62193 9.9966 9.375 9.375 9.375H4.6875V2.34375C4.6875 1.72215 4.44057 1.12601 4.00103 0.686468C3.56149 0.24693 2.96535 0 2.34375 0C1.72215 0 1.12601 0.24693 0.686468 0.686468C0.24693 1.12601 0 1.72215 0 2.34375L0 70.3125C0 72.8977 2.10234 75 4.6875 75H72.6562C73.2779 75 73.874 74.7531 74.3135 74.3135C74.7531 73.874 75 73.2779 75 72.6562C75 72.0346 74.7531 71.4385 74.3135 70.999C73.874 70.5594 73.2779 70.3125 72.6562 70.3125Z" fill="#FED569"/>
<path d="M65.625 39.8437C66.2466 39.8437 66.8427 39.5968 67.2823 39.1573C67.7218 38.7177 67.9687 38.1216 67.9687 37.5V25.7812C67.9687 25.6277 67.9523 25.473 67.923 25.3219C67.9078 25.2516 67.882 25.1871 67.8621 25.1191C67.8387 25.0406 67.8211 24.9609 67.7894 24.8848C67.7555 24.8051 67.7098 24.7313 67.6676 24.6563C67.6359 24.5977 67.6101 24.5367 67.5738 24.4828C67.4012 24.2252 67.1798 24.0039 66.9223 23.8313C66.8672 23.7949 66.8062 23.7691 66.7488 23.7375C66.6738 23.6965 66.6 23.6508 66.5203 23.6156C66.4441 23.5852 66.3644 23.5664 66.2859 23.543C66.218 23.523 66.1535 23.4973 66.0832 23.482C65.9322 23.4531 65.7788 23.4382 65.625 23.4375H53.9062C53.2846 23.4375 52.6885 23.6844 52.249 24.124C51.8094 24.5635 51.5625 25.1596 51.5625 25.7812C51.5625 26.4029 51.8094 26.999 52.249 27.4385C52.6885 27.8781 53.2846 28.125 53.9062 28.125H59.9672L37.5 50.5922L32.1258 45.218C31.6863 44.7786 31.0902 44.5317 30.4687 44.5317C29.8473 44.5317 29.2512 44.7786 28.8117 45.218L17.093 56.9367C16.8691 57.1529 16.6906 57.4115 16.5677 57.6975C16.4449 57.9834 16.3802 58.291 16.3775 58.6022C16.3748 58.9134 16.4341 59.222 16.552 59.51C16.6698 59.7981 16.8438 60.0598 17.0639 60.2798C17.284 60.4999 17.5457 60.6739 17.8337 60.7918C18.1217 60.9096 18.4304 60.9689 18.7416 60.9662C19.0528 60.9635 19.3603 60.8988 19.6463 60.776C19.9322 60.6532 20.1908 60.4746 20.407 60.2508L30.4687 50.1891L35.843 55.5633C36.2825 56.0027 36.8785 56.2495 37.5 56.2495C38.1215 56.2495 38.7175 56.0027 39.157 55.5633L63.2812 31.4391V37.5C63.2812 38.1216 63.5282 38.7177 63.9677 39.1573C64.4072 39.5968 65.0034 39.8437 65.625 39.8437Z" fill="#FED569"/>
</g>
<defs>
<clipPath id="clip0_68_243">
<rect width="75" height="75" fill="white"/>
</clipPath>
</defs>
</svg>
