<svg width="44" height="44" viewBox="0 0 44 44" fill="none" xmlns="http://www.w3.org/2000/svg">
<path d="M9.91667 0.25C3.24473 0.25 0.25 3.24473 0.25 9.91667V34.0833C0.25 40.7553 3.24473 43.75 9.91667 43.75H34.0833C40.7553 43.75 43.75 40.7553 43.75 34.0833V9.91667C43.75 3.24473 40.7553 0.25 34.0833 0.25H9.91667ZM36.5 5.08333C37.1409 5.08333 37.7556 5.33795 38.2088 5.79116C38.6621 6.24437 38.9167 6.85906 38.9167 7.5C38.9167 8.14094 38.6621 8.75563 38.2088 9.20884C37.7556 9.66205 37.1409 9.91667 36.5 9.91667C35.8591 9.91667 35.2444 9.66205 34.7912 9.20884C34.3379 8.75563 34.0833 8.14094 34.0833 7.5C34.0833 6.85906 34.3379 6.24437 34.7912 5.79116C35.2444 5.33795 35.8591 5.08333 36.5 5.08333ZM22 9.91667C23.5868 9.91667 25.1581 10.2292 26.6241 10.8365C28.0901 11.4437 29.4222 12.3338 30.5442 13.4558C31.6662 14.5778 32.5563 15.9099 33.1635 17.3759C33.7708 18.8419 34.0833 20.4132 34.0833 22C34.0833 23.5868 33.7708 25.1581 33.1635 26.6241C32.5563 28.0901 31.6662 29.4222 30.5442 30.5442C29.4222 31.6662 28.0901 32.5563 26.6241 33.1635C25.1581 33.7708 23.5868 34.0833 22 34.0833C20.4132 34.0833 18.8419 33.7708 17.3759 33.1635C15.9099 32.5563 14.5778 31.6662 13.4558 30.5442C12.3338 29.4222 11.4437 28.0901 10.8365 26.6241C10.2292 25.1581 9.91667 23.5868 9.91667 22C9.91667 20.4132 10.2292 18.8419 10.8365 17.3759C11.4437 15.9099 12.3338 14.5778 13.4558 13.4558C14.5778 12.3338 15.9099 11.4437 17.3759 10.8365C18.8419 10.2292 20.4132 9.91667 22 9.91667ZM22 14.75C20.0772 14.75 18.2331 15.5138 16.8735 16.8735C15.5138 18.2331 14.75 20.0772 14.75 22C14.75 23.9228 15.5138 25.7669 16.8735 27.1265C18.2331 28.4862 20.0772 29.25 22 29.25C23.9228 29.25 25.7669 28.4862 27.1265 27.1265C28.4862 25.7669 29.25 23.9228 29.25 22C29.25 20.0772 28.4862 18.2331 27.1265 16.8735C25.7669 15.5138 23.9228 14.75 22 14.75Z" fill="#673DE6"/>
</svg>
