<svg width="323" height="77" viewBox="0 0 323 77" fill="none" xmlns="http://www.w3.org/2000/svg">
<g style="mix-blend-mode:luminosity">
<path d="M86.153 17.3023V53.2499C86.153 53.5723 86.4221 53.8947 86.7451 53.8947C88.6291 54.0559 90.7284 54.0559 92.9892 53.8947C94.8194 53.7335 97.0264 53.5186 99.7178 53.0887C99.6102 53.6261 99.5563 54.2171 99.5563 54.8619C99.5563 55.3993 99.6102 56.0978 99.7178 56.7963H78.2939V17.2485C78.7246 17.3023 79.209 17.356 79.9088 17.4635C80.8777 17.6247 81.8467 17.6247 82.4388 17.4635H84.3766C85.0226 17.4097 85.6685 17.356 86.153 17.3023ZM111.829 19.2904C110.699 19.4516 109.945 19.4516 109.353 19.2904H107.415C106.716 19.1829 106.231 19.1292 105.8 19.0755V56.8501H113.283V19.0755C112.906 19.1292 112.421 19.1829 111.829 19.2904ZM119.258 19.0755C119.312 19.6128 119.365 20.1501 119.365 20.6875C119.365 21.386 119.312 21.9771 119.258 22.5144H120.496C124.048 22.0845 127.009 21.8159 129.27 21.8159C129.647 21.8159 129.916 22.0845 129.916 22.4607V56.8501H137.183V22.4607C137.183 22.0845 137.452 21.8159 137.829 21.8159C139.497 21.8159 141.866 21.9771 144.88 22.2457C145.634 22.3532 146.441 22.4069 147.303 22.4607C147.195 21.9233 147.195 21.3323 147.303 20.6875C147.195 20.1501 147.195 19.6128 147.303 19.0755H119.258ZM153.278 19.0755V56.8501H173.733C173.625 56.1515 173.571 55.5605 173.571 55.0231C173.571 54.4321 173.625 53.8947 173.679 53.3574C172.279 53.5723 170.718 53.7335 169.049 53.841C167.112 54.0022 164.474 54.0559 161.137 54.0559C160.76 54.0559 160.491 53.7873 160.491 53.4111V38.7956C160.491 38.4195 160.76 38.1508 161.137 38.1508H166.627C168.457 38.2583 169.911 38.3658 171.364 38.4732L172.441 38.527C172.387 38.3658 172.387 38.2046 172.333 38.0434V35.4104C172.333 35.3567 172.333 35.2492 172.387 35.1955C172.387 35.1417 172.441 35.088 172.441 35.0343C170.503 35.2492 168.726 35.3567 166.627 35.3567H161.137C160.76 35.3567 160.491 35.088 160.491 34.7119V22.3532C160.491 21.9771 160.76 21.7084 161.137 21.7084C165.174 21.7084 169.426 21.9771 173.733 22.5144C173.571 21.9233 173.517 21.3323 173.517 20.7949C173.517 20.1501 173.571 19.5591 173.733 18.968L153.278 19.0755ZM204.523 45.2436C204.361 40.5688 200.755 36.4314 193.811 32.9387C188.643 30.3057 186.167 27.7265 186.167 25.0936C186.167 20.8487 188.643 18.4844 193.38 18.3232C196.61 18.3232 199.086 20.0427 200.755 23.4279C200.916 22.8368 201.185 22.0845 201.508 21.1173C201.885 20.0964 202.208 19.2367 202.477 18.5381C200.001 17.0873 197.04 16.2276 193.595 16.1201C185.037 16.55 180.676 20.5263 180.407 28.1564C180.407 33.3148 183.691 37.4523 190.15 40.4614C195.533 42.9331 198.278 45.7272 198.278 48.79C197.955 53.1425 195.372 55.3993 190.581 55.5605C185.844 55.3993 182.937 53.1962 181.807 49.005H181.699C181.376 51.3155 180.946 53.5723 180.3 55.7217C183.153 56.7963 186.113 57.4411 189.128 57.5486C198.655 57.6023 203.931 53.0887 204.523 45.2436ZM217.011 39.8166C216.903 39.8166 216.742 39.8703 216.58 39.9778C216.473 40.0852 216.365 40.2464 216.365 40.4076V56.8501H208.829V19.0755H222.394C230.145 19.0755 233.967 22.0308 234.128 28.1027C234.182 31.4342 233.267 34.0671 231.437 35.9478C228.907 38.527 224.439 39.8703 218.195 39.8703C217.818 39.8166 217.442 39.8166 217.011 39.8166ZM216.957 37.9359C217.226 37.9896 217.549 37.9896 217.872 37.9896C218.787 37.9896 219.864 37.8284 221.048 37.4523C224.439 36.4851 226.377 33.691 226.646 29.1773C226.323 24.0727 224.332 21.2248 220.617 20.7412H217.011C216.688 20.7412 216.365 21.0099 216.365 21.386V37.3448C216.419 37.6135 216.634 37.8822 216.957 37.9359ZM264.273 19.0755V56.8501H284.781C284.674 56.1515 284.62 55.5067 284.62 55.0231C284.62 54.4321 284.674 53.841 284.781 53.3574C283.382 53.5723 281.821 53.7335 280.152 53.841C278.214 54.0022 275.631 54.0559 272.239 54.0559C271.916 54.0559 271.593 53.7873 271.593 53.4111V38.7956C271.593 38.4732 271.863 38.1508 272.239 38.1508H278.322C280.583 38.312 282.682 38.4195 284.566 38.527C284.512 38.3658 284.512 38.2046 284.458 37.9896V35.3567C284.458 35.303 284.458 35.1955 284.512 35.1418C284.512 35.088 284.566 35.0343 284.566 34.9268C282.682 35.1417 280.583 35.2492 278.376 35.2492H272.293C271.97 35.2492 271.647 34.9806 271.647 34.6044V22.2457C271.647 21.9233 271.916 21.6009 272.293 21.6009C276.33 21.6009 280.583 21.8696 284.943 22.4069C284.781 21.8159 284.728 21.2248 284.728 20.6875C284.728 20.0427 284.781 19.3979 284.943 18.8605L264.273 19.0755ZM302.491 56.8501H290.003V19.0755H306.044C316.863 19.8277 322.408 25.6309 323 36.8075C322.246 49.3811 315.356 56.1515 302.491 56.8501ZM314.603 36.8612C314.603 26.4907 309.92 21.2248 300.715 21.2248H297.916C297.593 21.2248 297.27 21.4935 297.27 21.8696V54.1097C297.27 54.4321 297.539 54.7545 297.916 54.7545H300.392C305.075 54.7545 308.681 53.1962 311.05 50.1871C313.365 47.2318 314.603 42.7182 314.603 36.8612ZM238.381 19.0755V56.8501H258.89C258.782 56.1515 258.728 55.5067 258.728 55.0231C258.728 54.4321 258.782 53.841 258.89 53.3574C257.49 53.5723 255.929 53.7335 254.26 53.841C252.323 54.0022 249.739 54.0559 246.348 54.0559C246.025 54.0559 245.702 53.7873 245.702 53.4111V38.7956C245.702 38.4732 245.971 38.1508 246.348 38.1508H252.43C254.691 38.312 256.79 38.4195 258.674 38.527C258.621 38.3658 258.621 38.2046 258.567 37.9896V35.3567C258.567 35.303 258.567 35.1955 258.621 35.1418C258.621 35.088 258.674 35.0343 258.674 34.9268C256.79 35.1417 254.691 35.2492 252.484 35.2492H246.401C246.079 35.2492 245.756 34.9806 245.756 34.6044V22.2457C245.756 21.9233 246.025 21.6009 246.401 21.6009C250.439 21.6009 254.691 21.8696 259.051 22.4069C258.89 21.8159 258.836 21.2248 258.836 20.6875C258.836 20.0427 258.89 19.3979 259.051 18.8605L238.381 19.0755Z" fill="#093071"/>
<path d="M58.9157 37.3984L41.1522 19.7201L33.6162 29.2846L41.7443 37.3984C42.4979 38.1507 42.4979 39.3865 41.7443 40.1388L39.3759 42.5031C39.3759 42.5031 40.9907 44.8673 41.0445 45.0285C41.4213 45.7808 41.4752 47.5003 40.4524 48.2525L21.9353 62.4382C21.9353 67.2204 21.9353 76.9999 21.9353 76.9999L58.9157 40.1388C59.6693 39.3865 59.6693 38.1507 58.9157 37.3984Z" fill="#5E8CDA"/>
<path d="M17.7366 39.6015C16.983 38.8493 16.983 37.6134 17.7366 36.8611L20.1051 34.4969L18.4902 32.1863C17.7366 31.1117 17.9519 29.5534 19.0285 28.7474L37.5456 14.5618V0L0.565203 36.9149C-0.188401 37.6671 -0.188401 38.903 0.565203 39.6553L18.3287 57.3336L25.8648 47.769L17.7366 39.6015Z" fill="#093071"/>
<path d="M30.0634 51.3154L21.5046 59.8591L30.0634 51.3154Z" fill="white"/>
<path d="M46.9118 8.91983C47.181 8.91983 47.3963 9.08103 47.5039 9.29597C47.7193 9.6721 47.4501 10.102 47.181 10.4244L30.9247 31.0043C30.7093 31.3267 30.6555 31.864 30.8708 32.1864C30.8708 32.1864 39.6449 44.8675 39.9141 45.2974C40.2371 45.781 40.2909 47.178 39.4835 47.7691L13.3765 67.7579C12.9997 68.0266 12.7843 68.1341 12.5152 68.1341C12.2999 68.1341 12.0307 67.9729 11.9231 67.7579C11.7078 67.3818 11.9769 66.9519 12.2461 66.6295L28.61 46.0496C28.8253 45.7272 28.8792 45.1899 28.6639 44.8675L19.6206 31.864C19.0285 31.058 19.2438 29.8759 19.9974 29.2848L46.1044 9.29597C46.4812 8.91983 46.6965 8.91983 46.9118 8.91983ZM46.9118 8.5437C46.5889 8.5437 46.3197 8.65116 45.8891 8.97356L19.7821 28.9624C18.867 29.6609 18.6517 31.058 19.2976 32.0252L28.3409 45.0287C28.4485 45.2436 28.4485 45.6198 28.2871 45.8347L12.0307 66.4146C11.8154 66.6833 11.3848 67.2743 11.6539 67.8654C11.8154 68.1878 12.1384 68.4027 12.5152 68.4027C12.9458 68.4027 13.215 68.2415 13.5918 67.9729L39.6988 47.984C40.6139 47.2855 40.6139 45.6735 40.1832 45.0824C39.8603 44.6526 31.14 31.9715 31.14 31.9715C31.0323 31.7565 31.0323 31.3804 31.14 31.1655L47.3963 10.5856C47.6116 10.3169 48.0422 9.77956 47.7731 9.13476C47.6116 8.81236 47.2886 8.5437 46.9118 8.5437Z" fill="#5E8CDA"/>
<path d="M39.3219 45.2973C39.5372 45.6197 39.6987 46.8018 39.2143 47.2317L13.1073 67.2205C12.8919 67.3817 12.7305 67.4892 12.6766 67.4892C12.569 67.4892 12.6766 67.328 12.892 67.0056L29.0944 46.4794C29.5251 45.9421 29.5251 45.0824 29.1483 44.545L20.105 31.5415C20.105 31.4878 39.1066 44.9749 39.3219 45.2973Z" fill="#F5CD21"/>
<path d="M39.3221 45.2973L30.3865 32.5088C30.0097 31.9714 30.0635 31.1117 30.4403 30.5744L46.6966 9.99446C46.9119 9.67206 47.0196 9.51086 46.9119 9.51086C46.8581 9.51086 46.6966 9.5646 46.4813 9.77953L20.3743 29.7684C19.836 30.1445 19.7284 30.9505 20.1052 31.4878L39.3221 45.2973Z" fill="#FDDD75"/>
</g>
</svg>
