<svg width="96" height="58" viewBox="0 0 96 58" fill="none" xmlns="http://www.w3.org/2000/svg">
<rect width="96" height="57" rx="8" fill="white"/>
<g clip-path="url(#clip0_69_363)">
<path d="M40.5409 28.7212C40.5409 22.8537 43.3687 17.66 47.7212 14.3846C44.7186 12.1252 40.998 10.7705 36.9507 10.7705C27.0371 10.7705 19 18.8076 19 28.7212C19 38.6348 27.0371 46.672 36.9507 46.672C40.998 46.672 44.7186 45.3161 47.7212 43.0579C43.3687 39.7813 40.5409 34.5887 40.5409 28.7212Z" fill="#F44336"/>
<path d="M58.4916 10.7705C54.4443 10.7705 50.7237 12.1252 47.7212 14.3846C52.0736 17.66 54.9015 22.8537 54.9015 28.7212C54.9015 34.5887 52.0736 39.7813 47.7212 43.0579C50.7237 45.3173 54.4443 46.672 58.4916 46.672C68.4052 46.672 76.4423 38.6348 76.4423 28.7212C76.4423 18.8076 68.4052 10.7705 58.4916 10.7705Z" fill="#FF9800"/>
<path d="M47.7212 43.058C51.6867 43.058 54.9015 36.6393 54.9015 28.7214C54.9015 20.8035 51.6867 14.3848 47.7212 14.3848C43.7556 14.3848 40.5409 20.8035 40.5409 28.7214C40.5409 36.6393 43.7556 43.058 47.7212 43.058Z" fill="#FF7300"/>
</g>
<defs>
<clipPath id="clip0_69_363">
<rect width="57.4423" height="57.4423" fill="white" transform="translate(19)"/>
</clipPath>
</defs>
</svg>
