<svg width="24" height="24" viewBox="0 0 24 24" fill="none" xmlns="http://www.w3.org/2000/svg">
<g clip-path="url(#clip0_36_109)">
<path d="M15.887 6.65217C16.7217 7.5913 17.113 8.86957 16.9304 10.2261C16.6174 12.7304 14.7913 13.6174 13.1739 13.6174H13.0435V14.2435C13.0435 14.8174 12.5739 15.287 12 15.287C11.4261 15.287 10.9565 14.8174 10.9565 14.2435V13.4087C10.9565 12.5478 11.3217 11.5304 13.1739 11.5304C14.1913 11.5304 14.713 11.0087 14.8435 9.96522C14.8957 9.62609 14.9217 8.71304 14.2957 8.03478C13.8 7.48696 12.9913 7.2 11.8957 7.2C9.54783 7.2 9.46957 8.73913 9.46957 8.89565C9.46957 9.46956 9 9.93913 8.42609 9.93913C7.85217 9.93913 7.38261 9.46956 7.38261 8.89565C7.38261 7.85217 8.1913 5.11304 11.8957 5.11304C14.0609 5.11304 15.2609 5.94783 15.887 6.65217ZM11.9217 16.1739C11.5826 16.1739 11.2435 16.3043 11.0087 16.5652C10.7739 16.8 10.6174 17.1391 10.6174 17.4783C10.6174 17.8174 10.7478 18.1565 11.0087 18.3913C11.2435 18.6261 11.5826 18.7826 11.9217 18.7826C12.2609 18.7826 12.6 18.6522 12.8348 18.3913C13.0696 18.1565 13.2261 17.8174 13.2261 17.4783C13.2261 17.1391 13.0957 16.8 12.8348 16.5652C12.6 16.3304 12.287 16.1739 11.9217 16.1739ZM24 12C24 18.6261 18.6261 24 12 24C5.37391 24 0 18.6261 0 12C0 5.37391 5.37391 0 12 0C18.6261 0 24 5.37391 24 12ZM21.913 12C21.913 6.52174 17.4783 2.08696 12 2.08696C6.52174 2.08696 2.08696 6.52174 2.08696 12C2.08696 17.4783 6.52174 21.913 12 21.913C17.4783 21.913 21.913 17.4783 21.913 12Z" fill="black"/>
</g>
<defs>
<clipPath id="clip0_36_109">
<rect width="24" height="24" fill="white"/>
</clipPath>
</defs>
</svg>
