<svg width="91" height="57" viewBox="0 0 91 57" fill="none" xmlns="http://www.w3.org/2000/svg">
<g clip-path="url(#clip0_69_354)">
<rect width="91" height="57" rx="8" fill="white"/>
<path opacity="0.938" fill-rule="evenodd" clip-rule="evenodd" d="M14.5896 32.9156C14.5289 32.8758 14.9498 31.2708 15.9546 27.7166C16.7531 24.8891 17.5054 22.2438 17.6244 21.8381L17.8421 21.1016L20.9823 21.1586C24.6542 21.2246 25.2191 21.2726 25.8099 21.5681C26.8564 22.0923 27.1445 22.8978 26.7843 24.2936C26.4764 25.4816 25.8895 26.2908 24.7543 27.0896C24.5389 27.2411 24.3508 27.4263 24.3372 27.5006C24.3205 27.5838 24.4547 27.7668 24.6807 27.9708C24.8855 28.1546 25.1016 28.4006 25.163 28.5168C25.3268 28.8318 25.2988 29.4603 25.0705 30.5516C24.959 31.0863 24.8468 31.8506 24.8202 32.2496L24.7747 32.9756H23.2543C22.1775 32.9756 21.7065 32.9486 21.639 32.8818C21.4904 32.7348 21.5238 32.3606 21.7816 31.2881C22.0683 30.0948 22.0857 29.6261 21.8536 29.3351C21.548 28.9496 21.2697 28.8671 20.1717 28.8303C19.2844 28.8011 19.1365 28.8146 19.0023 28.9346C18.793 29.1221 18.6231 29.6051 18.1272 31.4253L17.7056 32.9756L16.1919 32.9748C15.3593 32.9741 14.6381 32.9478 14.5896 32.9156ZM22.5801 26.2556C23.3013 26.0441 23.6054 25.5783 23.6069 24.6836C23.6069 24.4143 23.5614 24.2253 23.4681 24.1136C23.249 23.8526 22.5892 23.7641 21.3516 23.8286L20.2756 23.8863L20.1186 24.4083C19.8767 25.2138 19.7076 25.9931 19.7341 26.1768C19.7508 26.2968 19.835 26.3576 20.0359 26.3966C20.475 26.4821 22.1198 26.3906 22.5801 26.2556ZM27.6708 33.1458C27.19 32.9763 26.8116 32.6583 26.6531 32.2916C26.3513 31.5941 26.6289 30.0431 27.7307 26.2698C27.9946 25.3668 28.2108 24.6183 28.2108 24.6078C28.2108 24.5966 28.2669 24.5328 28.3351 24.4653C28.4367 24.3641 28.6688 24.3416 29.6 24.3416C30.2272 24.3416 30.8285 24.3746 30.937 24.4151L31.1341 24.4901L30.9377 25.1801C30.4554 26.8751 29.9542 28.9316 29.8685 29.5743C29.7896 30.1586 29.7926 30.3131 29.8859 30.5066C30.099 30.9468 30.8733 31.0391 31.5315 30.7046C32.3042 30.3116 32.4491 29.9748 33.6905 25.6916C33.8725 25.0638 34.012 24.7368 34.1667 24.5733L34.3859 24.3408H35.6265C36.5858 24.3408 36.8762 24.3648 36.9073 24.4458C36.9377 24.5261 35.3618 30.3311 34.6975 32.5833L34.5929 32.9366L33.2666 32.9756C32.537 32.9981 31.941 32.9928 31.941 32.9658C31.941 32.9388 31.9948 32.7656 32.0608 32.5803C32.3293 31.8281 31.9948 31.7816 31.0181 32.4333C30.0527 33.0776 29.6486 33.2298 28.8129 33.2651C28.2479 33.2883 27.9999 33.2628 27.6708 33.1458ZM36.488 32.9133C36.4174 32.8683 36.8262 31.3113 38.0357 27.0078L39.6798 21.1623L42.4576 21.1848C45.9231 21.2141 46.6307 21.2748 47.301 21.6011C47.8516 21.8688 48.114 22.1088 48.3589 22.5686C48.7714 23.3411 48.7646 24.2373 48.3369 25.4666C47.6802 27.3566 46.454 28.5986 44.838 29.0126C44.5763 29.0801 43.7551 29.1701 43.0127 29.2143C40.561 29.3591 40.7088 29.3321 40.5777 29.6643C40.5147 29.8233 40.2698 30.6341 40.0332 31.4643L39.6032 32.9756L38.0941 32.9748C37.263 32.9741 36.541 32.9463 36.488 32.9133ZM43.636 26.6216C44.4436 26.5188 44.8683 26.2721 45.1375 25.7493C45.4272 25.1883 45.5038 24.5763 45.3195 24.2981C45.0677 23.9178 44.7227 23.8353 43.4252 23.8421C42.7791 23.8451 42.2179 23.8796 42.1793 23.9178C42.0905 24.0063 41.5445 26.1401 41.5445 26.3996C41.5445 26.5046 41.568 26.6148 41.5976 26.6441C41.6727 26.7183 42.9907 26.7041 43.636 26.6216ZM48.1716 33.1781C47.2373 32.7911 46.9947 32.1513 47.2995 30.8733C47.7249 29.0876 48.663 28.4906 51.8829 27.9551C53.8273 27.6311 54.3126 27.3948 54.4521 26.7033C54.556 26.1918 54.1124 25.9128 53.1971 25.9113C52.6253 25.9113 52.4114 25.9938 51.9155 26.4041L51.5159 26.7356L50.486 26.7618C49.2932 26.7918 48.9261 26.7446 48.9261 26.5623C48.9261 26.3493 49.394 25.6991 49.8308 25.3038C50.301 24.8793 50.9228 24.5538 51.5962 24.3813C53.0098 24.0168 55.444 24.0588 56.2805 24.4623C56.7279 24.6783 57.126 25.0368 57.3156 25.3953C57.4946 25.7343 57.4308 26.0861 56.5853 29.4003C56.1705 31.0278 55.8308 32.4978 55.8308 32.6673V32.9756H54.8502C54.3111 32.9756 53.7052 32.9981 53.5027 33.0258L53.1364 33.0753L52.9749 32.7033C52.7853 32.2661 52.7633 32.2661 51.7653 32.7108C50.6817 33.1923 50.2843 33.3003 49.4426 33.3393C48.7259 33.3723 48.6016 33.3566 48.1716 33.1781ZM52.438 31.3443C52.9847 31.1043 53.6035 30.1248 53.6066 29.4911L53.6089 29.1851L53.1046 29.2316C52.5464 29.2841 51.3665 29.6598 50.9342 29.9238C50.5687 30.1473 50.3548 30.5073 50.3556 30.8958C50.3571 31.2686 50.4125 31.3706 50.6741 31.4808C50.9729 31.6068 52.0239 31.5258 52.438 31.3443ZM56.809 36.6941C56.4905 36.6236 56.4791 36.5066 56.6998 35.6441C56.9956 34.4906 56.9766 34.5146 57.7084 34.4021C58.4971 34.2806 58.8497 34.1096 59.0256 33.7608C59.2205 33.3746 59.2061 31.8596 58.9703 27.7953C58.8391 25.5333 58.8065 24.5073 58.8641 24.4391C58.9233 24.3678 59.3252 24.3416 60.3595 24.3416H61.7738L61.7988 26.9666C61.8155 28.7591 61.8519 29.6208 61.9111 29.6801C62.0559 29.8226 62.5868 28.9346 64.7632 24.9101L65.0711 24.3416H66.3193C67.0063 24.3416 67.5849 24.3686 67.6054 24.4016C67.6456 24.4653 65.7536 27.8006 63.8555 31.0136C61.1573 35.5803 60.6492 36.2096 59.3836 36.5583C58.9703 36.6723 57.1427 36.7683 56.809 36.6941Z" fill="#227FBB"/>
<path fill-rule="evenodd" clip-rule="evenodd" d="M68.5063 35.6471L72.2169 22.2041L75.7492 29.1514L68.5063 35.6471Z" fill="#1AAF5D"/>
<path fill-rule="evenodd" clip-rule="evenodd" d="M66.21 35.6962L69.9205 22.2539L73.4528 29.2004L66.21 35.6962Z" fill="#F59D00"/>
<path fill-rule="evenodd" clip-rule="evenodd" d="M76.4347 21.9532V21.0367H76.082V20.877H76.9708V21.0367H76.6159V21.9532H76.4339H76.4347ZM77.0921 21.9532V20.877H77.3591L77.6343 21.7365L77.8998 20.877H78.1614V21.9532H77.9961V21.0502L77.7155 21.9532H77.5517L77.259 21.0367V21.9532H77.0921Z" fill="black"/>
<path opacity="0.938" fill-rule="evenodd" clip-rule="evenodd" d="M78.7074 21.3948C78.7074 21.7907 78.5484 22.1703 78.2654 22.4502C77.9824 22.7301 77.5985 22.8873 77.1983 22.8873C76.7981 22.8873 76.4142 22.7301 76.1312 22.4502C75.8482 22.1703 75.6892 21.7907 75.6892 21.3948C75.6892 20.999 75.8482 20.6194 76.1312 20.3395C76.4142 20.0596 76.7981 19.9023 77.1983 19.9023C77.5985 19.9023 77.9824 20.0596 78.2654 20.3395C78.5484 20.6194 78.7074 20.999 78.7074 21.3948V21.3948Z" stroke="black" stroke-width="0.5"/>
</g>
<defs>
<clipPath id="clip0_69_354">
<rect width="91" height="57" rx="8" fill="white"/>
</clipPath>
</defs>
</svg>
