<svg width="45" height="45" viewBox="0 0 45 45" fill="none" xmlns="http://www.w3.org/2000/svg">
    <path d="M22.5 31.875C17.3306 31.875 13.125 27.6694 13.125 22.5C13.125 17.3306 17.3306 13.125 22.5 13.125C27.6694 13.125 31.875 17.3306 31.875 22.5C31.875 27.6694 27.6703 31.875 22.5 31.875ZM22.5 15C18.3647 15 15 18.3647 15 22.5C15 26.6353 18.3647 30 22.5 30C26.6353 30 30 26.6353 30 22.5C30 18.3647 26.6362 15 22.5 15Z" fill="white" />
    <path d="M24.375 45H20.625C19.0744 45 17.8125 43.7381 17.8125 42.1875V38.6963C16.6124 38.3494 15.4548 37.8692 14.3616 37.2647L11.8922 39.735C10.8291 40.7981 8.9775 40.7962 7.91438 39.735L5.26219 37.0837C4.73063 36.5531 4.43813 35.8463 4.43813 35.0953C4.43813 34.3444 4.73063 33.6375 5.26219 33.1069L7.7325 30.6356C7.12797 29.5433 6.64839 28.3863 6.30281 27.1866H2.8125C1.26187 27.1866 0 25.9247 0 24.3741V20.6241C0 19.8722 0.2925 19.1663 0.823125 18.6356C1.08385 18.3737 1.39389 18.166 1.73535 18.0245C2.07681 17.8831 2.44291 17.8107 2.8125 17.8116H6.30375C6.65062 16.6134 7.12875 15.4575 7.73438 14.3625L5.265 11.8922C4.7382 11.3645 4.44231 10.6494 4.44231 9.90375C4.44231 9.15813 4.7382 8.44298 5.265 7.91531L7.91625 5.26312C8.97844 4.20187 10.8309 4.2 11.8941 5.26312L14.3644 7.73344C15.4568 7.12973 16.6134 6.65018 17.8125 6.30375V2.8125C17.8125 1.26187 19.0744 0 20.625 0H24.375C25.9256 0 27.1875 1.26187 27.1875 2.8125V6.30375C28.3875 6.65062 29.5425 7.12969 30.6356 7.73344L33.1059 5.26312C34.1691 4.20187 36.0206 4.2 37.0837 5.26312L39.7359 7.91438C40.2675 8.445 40.56 9.15187 40.56 9.90281C40.56 10.6537 40.2675 11.3606 39.7359 11.8912L37.2666 14.3616C37.8713 15.4543 38.3512 16.6116 38.6972 17.8116H42.1875C43.7381 17.8116 45 19.0734 45 20.6241V24.3741C45 25.1259 44.7075 25.8319 44.1769 26.3625C43.6463 26.8931 42.9394 27.1866 42.1875 27.1866H38.6963C38.3496 28.3863 37.8697 29.5435 37.2656 30.6366L39.735 33.1069C40.2618 33.6345 40.5577 34.3497 40.5577 35.0953C40.5577 35.8409 40.2618 36.5561 39.735 37.0837L37.0837 39.7359C36.0206 40.7981 34.1691 40.7981 33.1059 39.7359L30.6375 37.2656C29.5448 37.8696 28.3879 38.3495 27.1884 38.6963V42.1875C27.1872 42.9332 26.8904 43.648 26.363 44.1752C25.8356 44.7024 25.1207 44.999 24.375 45ZM14.2097 35.1544C14.3775 35.1544 14.5472 35.1994 14.6981 35.2913C16.0211 36.1012 17.4626 36.6994 18.9703 37.0641C19.1747 37.1135 19.3566 37.2302 19.4867 37.3955C19.6168 37.5608 19.6875 37.765 19.6875 37.9753V42.1875C19.6875 42.705 20.1084 43.125 20.625 43.125H24.375C24.8916 43.125 25.3125 42.705 25.3125 42.1875V37.9753C25.3125 37.765 25.3832 37.5608 25.5133 37.3955C25.6434 37.2302 25.8253 37.1135 26.0297 37.0641C27.5371 36.6996 28.9782 36.1017 30.3009 35.2922C30.6722 35.0662 31.1466 35.1234 31.4531 35.4291L34.4325 38.4094C34.7841 38.76 35.4066 38.7619 35.7591 38.4094L38.4103 35.7572C38.5861 35.5814 38.6848 35.343 38.6848 35.0944C38.6848 34.8458 38.5861 34.6074 38.4103 34.4316L35.43 31.4513C35.2812 31.3024 35.1867 31.1079 35.1619 30.8989C35.1371 30.6899 35.1833 30.4786 35.2931 30.2991C36.1026 28.9764 36.7001 27.5352 37.0641 26.0278C37.1133 25.8232 37.23 25.6411 37.3953 25.5109C37.5606 25.3806 37.7649 25.3097 37.9753 25.3097H42.1875C42.3106 25.3102 42.4326 25.2863 42.5464 25.2395C42.6603 25.1927 42.7637 25.1238 42.8509 25.0369C42.938 24.9499 43.0071 24.8466 43.0541 24.7328C43.1012 24.6191 43.1252 24.4972 43.125 24.3741V20.6241C43.125 20.1066 42.7041 19.6866 42.1875 19.6866H37.9753C37.7648 19.6867 37.5604 19.6159 37.3951 19.4856C37.2298 19.3553 37.1132 19.1731 37.0641 18.9684C36.7002 17.461 36.1027 16.0198 35.2931 14.6972C35.1833 14.5176 35.1371 14.3064 35.1619 14.0974C35.1867 13.8884 35.2812 13.6938 35.43 13.545L38.4103 10.5647C38.5847 10.3894 38.685 10.1484 38.685 9.90188C38.685 9.65531 38.5847 9.41344 38.4103 9.23906L35.7581 6.58781C35.5792 6.41774 35.3417 6.3229 35.0948 6.3229C34.848 6.3229 34.6105 6.41774 34.4316 6.58781L31.4513 9.56813C31.3029 9.7177 31.1082 9.81265 30.899 9.8375C30.6898 9.86236 30.4783 9.81565 30.2991 9.705C28.9769 8.8958 27.5364 8.29828 26.0297 7.93406C25.8253 7.88517 25.6434 7.76883 25.5133 7.60384C25.3832 7.43885 25.3124 7.23482 25.3125 7.02469V2.8125C25.3125 2.295 24.8916 1.875 24.375 1.875H20.625C20.1084 1.875 19.6875 2.295 19.6875 2.8125V7.02469C19.6875 7.23501 19.6168 7.43923 19.4867 7.6045C19.3566 7.76978 19.1747 7.88651 18.9703 7.93594C17.463 8.3001 16.0218 8.89762 14.6991 9.70687C14.5197 9.8168 14.3086 9.86307 14.0997 9.83824C13.8908 9.81341 13.6964 9.71891 13.5478 9.57L10.5675 6.58969C10.3885 6.41961 10.1511 6.32478 9.90422 6.32478C9.65734 6.32478 9.41989 6.41961 9.24094 6.58969L6.59063 9.24094C6.41487 9.41675 6.31614 9.65516 6.31614 9.90375C6.31614 10.1523 6.41487 10.3908 6.59063 10.5666L9.57094 13.5469C9.71977 13.6957 9.81421 13.8903 9.83904 14.0992C9.86386 14.3082 9.81764 14.5195 9.70781 14.6991C8.89842 16.0214 8.30088 17.4623 7.93687 18.9694C7.88763 19.174 7.77097 19.3561 7.60568 19.4863C7.44039 19.6166 7.23608 19.6875 7.02562 19.6875H2.8125C2.68933 19.687 2.56727 19.7109 2.45337 19.7578C2.33946 19.8046 2.23596 19.8736 2.14882 19.9607C2.06167 20.0477 1.99262 20.1511 1.94562 20.265C1.89863 20.3789 1.87463 20.5009 1.875 20.6241V24.3741C1.875 24.8916 2.29594 25.3116 2.8125 25.3116H7.02469C7.45781 25.3116 7.83469 25.6078 7.93594 26.0297C8.30009 27.5367 8.89762 28.9776 9.70687 30.3C9.8167 30.4795 9.86292 30.6908 9.8381 30.8998C9.81327 31.1088 9.71884 31.3034 9.57 31.4522L6.58969 34.4334C6.41531 34.6087 6.315 34.8497 6.315 35.0963C6.315 35.3428 6.41531 35.5847 6.58969 35.7591L9.24187 38.4103C9.42083 38.5804 9.65828 38.6752 9.90516 38.6752C10.152 38.6752 10.3895 38.5804 10.5684 38.4103L13.5478 35.43C13.6343 35.3425 13.7374 35.273 13.8511 35.2257C13.9647 35.1784 14.0866 35.1541 14.2097 35.1544Z" fill="white" />
</svg>