<svg width="44" height="44" viewBox="0 0 44 44" fill="none" xmlns="http://www.w3.org/2000/svg">
<path d="M38.6667 0H4.83333C3.55145 0 2.32208 0.509225 1.41565 1.41565C0.509225 2.32208 0 3.55145 0 4.83333V38.6667C0 39.9485 0.509225 41.1779 1.41565 42.0843C2.32208 42.9908 3.55145 43.5 4.83333 43.5H38.6667C39.9485 43.5 41.1779 42.9908 42.0843 42.0843C42.9908 41.1779 43.5 39.9485 43.5 38.6667V4.83333C43.5 3.55145 42.9908 2.32208 42.0843 1.41565C41.1779 0.509225 39.9485 0 38.6667 0ZM33.9551 15.7431V16.5725C33.9551 24.4431 27.9463 33.5588 16.9689 33.5588C13.6551 33.5588 10.5483 32.5225 7.85513 30.8657H9.30513C11.9983 30.8657 14.6914 29.8294 16.7639 28.3794C14.0727 28.3794 12.0002 26.5157 11.1727 24.2382C11.5865 24.2382 12.0021 24.4451 12.209 24.4451C12.8296 24.4451 13.2453 24.4451 13.8678 24.2382C11.1747 23.6176 9.10407 21.3382 9.10407 18.4382C9.93347 18.8519 10.7609 19.0588 11.7972 19.2676C10.1403 17.8176 9.106 16.1607 9.106 14.0882C9.106 13.0519 9.31287 12.0176 9.9354 11.1882C12.8354 14.7088 17.1854 17.197 22.156 17.4019C22.156 16.9882 21.9491 16.5725 21.9491 15.9519C21.9507 14.359 22.5843 12.8317 23.7109 11.7055C24.8375 10.5792 26.365 9.94609 27.9579 9.94507C29.6167 9.94507 31.2717 10.5657 32.3079 11.8088C33.7579 11.6019 35.0011 10.9794 36.0373 10.3588C35.6236 11.8088 34.5873 12.8451 33.3461 13.6725C34.5873 13.4657 35.6255 13.2588 36.8667 12.6363C36.0335 13.8833 34.9991 14.9176 33.9609 15.747L33.9551 15.7431Z" fill="#673DE6"/>
</svg>
