<svg width="92" height="92" viewBox="0 0 92 92" fill="none" xmlns="http://www.w3.org/2000/svg">
<path d="M60.2044 25.0124C60.2044 25.8031 60.1505 26.5937 60.0516 27.3753C60.0966 27.0609 60.1415 26.7374 60.1774 26.423C59.9618 27.9863 59.5485 29.5046 58.9466 30.9601C59.0634 30.6726 59.1891 30.3851 59.3059 30.0976C58.704 31.5171 57.9313 32.8468 56.988 34.0687L57.554 33.341C56.6196 34.5449 55.5325 35.632 54.3286 36.5663L55.0563 36.0003C53.8345 36.9347 52.5048 37.7163 51.0852 38.3183C51.3727 38.2015 51.6602 38.0757 51.9477 37.9589C50.4923 38.5609 48.9739 38.9742 47.4106 39.1898C47.7251 39.1449 48.0485 39.0999 48.363 39.064C46.7907 39.2706 45.2095 39.2706 43.6372 39.064C43.9516 39.1089 44.2751 39.1538 44.5895 39.1898C43.0262 38.9742 41.5079 38.5609 40.0524 37.9589C40.3399 38.0757 40.6274 38.2015 40.9149 38.3183C39.4954 37.7163 38.1657 36.9437 36.9438 36.0003L37.6716 36.5663C36.4677 35.632 35.3805 34.5449 34.4462 33.341L35.0122 34.0687C34.0778 32.8468 33.2962 31.5171 32.6942 30.0976C32.811 30.3851 32.9368 30.6726 33.0536 30.9601C32.4516 29.5046 32.0384 27.9863 31.8227 26.423C31.8677 26.7374 31.9126 27.0609 31.9485 27.3753C31.7419 25.8031 31.7419 24.2218 31.9485 22.6495C31.9036 22.964 31.8587 23.2874 31.8227 23.6019C32.0384 22.0386 32.4516 20.5203 33.0536 19.0648C32.9368 19.3523 32.811 19.6398 32.6942 19.9273C33.2962 18.5078 34.0688 17.1781 35.0122 15.9562L34.4462 16.6839C35.3805 15.48 36.4677 14.3929 37.6716 13.4585L36.9438 14.0245C38.1657 13.0902 39.4954 12.3085 40.9149 11.7066C40.6274 11.8234 40.3399 11.9492 40.0524 12.066C41.5079 11.464 43.0262 11.0507 44.5895 10.8351C44.2751 10.88 43.9516 10.9249 43.6372 10.9609C45.2095 10.7542 46.7907 10.7542 48.363 10.9609C48.0485 10.916 47.7251 10.871 47.4106 10.8351C48.9739 11.0507 50.4923 11.464 51.9477 12.066C51.6602 11.9492 51.3727 11.8234 51.0852 11.7066C52.5048 12.3085 53.8345 13.0812 55.0563 14.0245L54.3286 13.4585C55.5325 14.3929 56.6196 15.48 57.554 16.6839L56.988 15.9562C57.9223 17.1781 58.704 18.5078 59.3059 19.9273C59.1891 19.6398 59.0634 19.3523 58.9466 19.0648C59.5485 20.5203 59.9618 22.0386 60.1774 23.6019C60.1325 23.2874 60.0876 22.964 60.0516 22.6495C60.1505 23.4312 60.1954 24.2218 60.2044 25.0124C60.2134 26.8902 61.8485 28.696 63.7981 28.6062C65.7387 28.5163 67.4009 27.0249 67.3919 25.0124C67.3739 20.7089 66.0802 16.3066 63.5466 12.8027C62.8637 11.8593 62.136 10.9339 61.3274 10.0984C60.5098 9.25384 59.6114 8.52611 58.677 7.81634C56.979 6.52259 55.0833 5.57025 53.0708 4.83353C44.9579 1.8597 35.1739 4.51009 29.6845 11.1945C28.9298 12.1109 28.211 13.0632 27.6001 14.0874C26.9891 15.1027 26.513 16.1808 26.0727 17.2769C25.2462 19.3074 24.8239 21.4636 24.6532 23.6468C24.3208 27.9234 25.4348 32.3886 27.663 36.0542C29.8102 39.5941 33.0536 42.6308 36.845 44.3468C37.9591 44.8499 39.1001 45.3171 40.286 45.6495C41.463 45.973 42.6579 46.1527 43.8708 46.2964C46.0809 46.557 48.336 46.3773 50.5192 45.937C58.8118 44.248 65.7567 37.1054 67.0415 28.723C67.2302 27.5011 67.3739 26.2792 67.3739 25.0394C67.3829 23.1617 65.7118 21.3558 63.7802 21.4456C61.8395 21.5085 60.2044 22.9999 60.2044 25.0124ZM72.1266 81.1917H26.0278C23.9884 81.1917 21.9489 81.2097 19.9095 81.1917C19.6848 81.1917 19.4602 81.1738 19.2446 81.1468C19.5591 81.1917 19.8825 81.2366 20.197 81.2726C19.8376 81.2187 19.4962 81.1199 19.1638 80.9851C19.4513 81.1019 19.7387 81.2277 20.0262 81.3445C19.6669 81.1917 19.3345 80.9941 19.02 80.7515L19.7477 81.3175C19.4782 81.0929 19.2266 80.8503 19.011 80.5808L19.577 81.3085C19.3345 80.9941 19.1458 80.6617 18.9841 80.3023C19.1009 80.5898 19.2266 80.8773 19.3434 81.1648C19.2087 80.8324 19.1188 80.482 19.0559 80.1316C19.1009 80.446 19.1458 80.7695 19.1817 81.0839C19.038 79.9968 19.1368 78.8468 19.1368 77.7507V73.9054C19.1368 72.9441 19.1907 71.9917 19.3165 71.0394C19.2716 71.3538 19.2266 71.6773 19.1907 71.9917C19.4423 70.1499 19.9274 68.3441 20.6552 66.6281C20.5384 66.9156 20.4126 67.2031 20.2958 67.4906C20.9966 65.8554 21.895 64.3191 22.9821 62.9085L22.4161 63.6363C23.5032 62.2437 24.752 60.9859 26.1536 59.8988L25.4259 60.4648C26.8364 59.3777 28.3727 58.4792 30.0079 57.7784C29.7204 57.8952 29.4329 58.021 29.1454 58.1378C30.8614 57.4191 32.6583 56.9249 34.5091 56.6734C34.1946 56.7183 33.8712 56.7632 33.5567 56.7992C34.8864 56.6284 36.2071 56.6195 37.5458 56.6195H53.9872C55.4696 56.6195 56.943 56.6105 58.4255 56.7992C58.111 56.7542 57.7876 56.7093 57.4731 56.6734C59.3149 56.9249 61.1208 57.4101 62.8368 58.1378C62.5493 58.021 62.2618 57.8952 61.9743 57.7784C63.6094 58.4792 65.1458 59.3777 66.5563 60.4648L65.8286 59.8988C67.2212 60.9859 68.479 62.2347 69.5661 63.6363L69.0001 62.9085C70.0872 64.3191 70.9856 65.8554 71.6864 67.4906C71.5696 67.2031 71.4438 66.9156 71.327 66.6281C72.0458 68.3441 72.5399 70.1409 72.7915 71.9917C72.7466 71.6773 72.7016 71.3538 72.6657 71.0394C72.8364 72.396 72.8454 73.7437 72.8454 75.1093V79.5566C72.8454 80.0687 72.8634 80.5808 72.8005 81.0839C72.8454 80.7695 72.8903 80.446 72.9263 80.1316C72.8723 80.491 72.7735 80.8324 72.6387 81.1648C72.7555 80.8773 72.8813 80.5898 72.9981 80.3023C72.8454 80.6617 72.6477 80.9941 72.4052 81.3085L72.9712 80.5808C72.7466 80.8503 72.504 81.1019 72.2345 81.3175L72.9622 80.7515C72.6477 80.9941 72.3153 81.1827 71.9559 81.3445C72.2434 81.2277 72.5309 81.1019 72.8184 80.9851C72.486 81.1199 72.1356 81.2097 71.7852 81.2726C72.0997 81.2277 72.4231 81.1827 72.7376 81.1468C72.5399 81.1738 72.3333 81.1827 72.1266 81.1917C71.2012 81.2007 70.2489 81.587 69.5841 82.2429C68.9641 82.8628 68.488 83.887 68.5329 84.7855C68.6227 86.7081 70.1141 88.4062 72.1266 88.3792C75.6216 88.3253 78.6942 86.0433 79.7184 82.6921C80.1227 81.3624 80.0329 79.9339 80.0329 78.5683C80.0329 75.4417 80.1317 72.3421 79.5927 69.2425C78.802 64.7054 76.52 60.4378 73.3934 57.0867C70.2669 53.7355 66.0622 51.2738 61.6149 50.1777C59.0634 49.5488 56.4938 49.4499 53.8884 49.4499H37.9501C35.2817 49.4499 32.6313 49.5757 30.0348 50.2675C25.6235 51.4355 21.4727 53.9242 18.4091 57.3023C15.3184 60.7074 13.0813 64.9839 12.3536 69.548C11.8684 72.6116 11.9673 75.6843 11.9673 78.7749C11.9673 80.1945 11.8864 81.6769 12.3985 83.0335C13.0634 84.7765 14.1235 86.1511 15.6778 87.1843C16.8907 87.9839 18.427 88.3702 19.8645 88.3882C20.5653 88.3972 21.2661 88.3882 21.9669 88.3882H72.1356C74.0134 88.3882 75.8192 86.7351 75.7294 84.7945C75.6395 82.8359 74.1481 81.1917 72.1266 81.1917Z" fill="#FED569"/>
</svg>
