<svg width="95" height="57" viewBox="0 0 95 57" fill="none" xmlns="http://www.w3.org/2000/svg">
<rect width="94.6275" height="57" rx="8" fill="white"/>
<path d="M43.9596 37.1807H39.8971L42.4316 21.524H46.4761L43.9596 37.1807ZM58.6276 21.9015C57.4814 21.4566 56.2619 21.231 55.0325 21.2364C51.0419 21.2364 48.2198 23.3755 48.2018 26.4134C48.2018 28.6603 50.215 29.9186 51.7969 30.6736C53.3787 31.4285 53.882 31.9318 53.882 32.6149C53.882 33.6575 52.6237 34.1428 51.4553 34.1428C50.1428 34.1777 48.8414 33.894 47.6625 33.316L47.1233 33.0643L46.548 36.6594C47.9943 37.2113 49.5299 37.4916 51.0779 37.4863C55.3201 37.4863 58.0883 35.3831 58.1243 32.0936C58.1243 30.2961 57.0457 28.9479 54.7269 27.8334C53.3068 27.1144 52.444 26.6291 52.444 25.9101C52.444 25.191 53.163 24.5619 54.7628 24.5619C55.8017 24.5241 56.8353 24.7271 57.7827 25.1551L58.1602 25.3169L58.6995 21.9375L58.6276 21.9015ZM64.0202 31.6263H67.3816L66.4469 27.0964L66.1593 25.7483C65.9616 26.3415 65.62 27.2762 65.638 27.2582C65.656 27.2402 64.3438 30.7275 64.0202 31.6263ZM69.0174 21.524L72.271 37.1807H68.5321C68.5321 37.1807 68.1546 35.3831 68.0467 34.8259H62.8518C62.69 35.2393 61.989 37.1807 61.989 37.1807H57.7468L63.7686 22.8003C63.923 22.3798 64.2144 22.0235 64.5958 21.7887C64.9773 21.554 65.4267 21.4544 65.8717 21.5061L69.0174 21.524ZM36.4997 21.524L32.5451 32.2015L32.0957 30.0264C31.1192 27.2168 29.1244 24.8755 26.5054 23.4654L30.1005 37.1627H34.3786L40.742 21.524H36.4997ZM28.8602 21.524H22.353V21.8296C24.5372 22.2827 26.5757 23.2679 28.2878 24.6978C29.9998 26.1277 31.3325 27.958 32.1676 30.0264L30.7656 22.8362C30.6793 22.435 30.4484 22.0795 30.1169 21.8375C29.7854 21.5956 29.3765 21.484 28.968 21.524H28.8602Z" fill="black"/>
</svg>
