<svg width="80" height="80" viewBox="0 0 80 80" fill="none" xmlns="http://www.w3.org/2000/svg">
<g clip-path="url(#clip0_68_254)">
<path d="M40 0C17.9086 0 0 17.9086 0 40C0 62.0914 17.9086 80 40 80C62.0914 80 80 62.0914 80 40C80 17.9086 62.0914 0 40 0ZM40 78.2371C18.9171 78.2371 1.76286 61.0829 1.76286 40C1.76286 18.9171 18.9171 1.76286 40 1.76286C61.0829 1.76286 78.2371 18.9171 78.2371 40C78.2371 61.0829 61.0829 78.2371 40 78.2371Z" fill="#FED569"/>
<path d="M18.2372 21.0109C21.6801 20.7909 23.0801 20.5481 23.5258 21.0652C24.0858 21.7167 24.1601 23.2424 23.1944 23.4881C22.2315 23.7367 18.7601 23.9024 18.7601 23.9024L31.3486 61.2852L38.9344 38.7881L33.4972 23.9481C33.4972 23.9481 30.0086 23.5995 29.6229 23.5824C29.2372 23.5652 28.5201 22.9024 28.6315 21.9109C28.7429 20.9195 29.3486 20.7538 29.9172 20.7538C30.4858 20.7538 38.3458 21.1509 40.2944 21.1395C43.3058 21.1224 47.8972 20.7167 48.7429 20.7167C49.5886 20.7167 49.9915 21.6338 49.9544 21.9652C49.9172 22.2967 49.9544 23.3624 48.7429 23.5081C47.5315 23.6538 44.7772 23.9109 44.7772 23.9109L57.1372 60.8995C57.1372 60.8995 62.8658 44.5367 63.0886 40.8452C63.3115 37.1538 63.0344 33.5738 61.2715 30.3767C59.5086 27.1795 55.5972 22.4424 57.4687 18.1995C58.8944 14.9738 61.7029 14.4595 63.7144 14.7195C57.5001 8.89094 49.1715 5.28809 40.0001 5.28809C27.8115 5.28809 17.0915 11.6167 10.8972 21.1424C12.6001 21.1652 15.6372 21.1767 18.2372 21.0109ZM70.2429 23.0195C70.6544 26.2052 70.7001 31.2081 68.6887 37.2452C65.9629 45.4167 59.9258 62.6195 57.3115 70.0424C67.6944 64.0367 74.7144 52.8338 74.7144 39.9995C74.7115 33.8309 73.0744 28.0452 70.2429 23.0195Z" fill="#FED569"/>
<path d="M40.5514 43.1947L30.1371 73.2632C33.2657 74.1918 36.5714 74.7118 40 74.7118C43.9857 74.7118 47.8 74.0033 51.3686 72.7604L40.5514 43.1947ZM8.31143 25.9004C6.38286 30.2147 5.28857 34.9775 5.28857 40.0004C5.28857 53.689 13.2743 65.5175 24.8114 71.1632L8.31143 25.9004Z" fill="#FED569"/>
</g>
<defs>
<clipPath id="clip0_68_254">
<rect width="80" height="80" fill="white"/>
</clipPath>
</defs>
</svg>
