<svg width="337" height="77" viewBox="0 0 337 77" fill="none" xmlns="http://www.w3.org/2000/svg">
<g style="mix-blend-mode:luminosity" clip-path="url(#clip0_19_291)">
<path d="M195.453 30.0933H182.187V31.5004C186.337 31.5004 187.004 32.3896 187.004 37.6511V47.1364C187.004 52.3973 186.337 53.3607 182.187 53.3607C179.001 52.9164 176.851 51.2117 173.887 47.9513L170.478 44.2467C175.073 43.4305 177.518 40.5414 177.518 37.2804C177.518 33.2058 174.036 30.0933 167.513 30.0933H154.47V31.5004C158.62 31.5004 159.287 32.3896 159.287 37.6511V47.1364C159.287 52.3973 158.62 53.3607 154.47 53.3607V54.7685H169.218V53.3607C165.068 53.3607 164.401 52.3973 164.401 47.1364V44.4694H165.661L173.887 54.7685H195.453C206.05 54.7685 210.646 49.1375 210.646 42.3934C210.646 35.6506 206.051 30.0933 195.453 30.0933ZM164.402 42.1707V32.3166H167.44C170.774 32.3166 172.257 34.6135 172.257 37.2811C172.257 39.875 170.774 42.1713 167.44 42.1713H164.402V42.1707ZM195.676 52.4715H195.157C192.489 52.4715 192.119 51.8051 192.119 48.3962V32.3166H195.676C203.383 32.3166 204.79 37.9475 204.79 42.3198C204.79 46.8394 203.383 52.4715 195.676 52.4715ZM113.193 44.9137L118.307 29.7963C119.789 25.4246 119.122 24.1653 114.379 24.1653V22.6827H128.312V24.1653C123.643 24.1653 122.532 25.2767 120.679 30.6861L112.229 56.0283H111.266L103.706 32.8345L95.9998 56.0283H95.0362L86.8103 30.6861C85.0317 25.2767 83.846 24.1653 79.5474 24.1653V22.6827H95.9998V24.1653C91.6269 24.1653 90.4405 25.2024 91.9976 29.7963L96.9627 44.9137L104.448 22.6827H105.856L113.193 44.9137ZM138.389 55.7313C130.238 55.7313 123.568 49.7297 123.568 42.3928C123.568 35.1314 130.238 29.1286 138.389 29.1286C146.541 29.1286 153.211 35.1314 153.211 42.3928C153.211 49.7297 146.541 55.7313 138.389 55.7313ZM138.389 31.4274C131.572 31.4274 129.2 37.5768 129.2 42.3934C129.2 47.2849 131.572 53.3607 138.389 53.3607C145.282 53.3607 147.654 47.2849 147.654 42.3934C147.654 37.5768 145.282 31.4274 138.389 31.4274Z" fill="#00749A"/>
<path d="M228.95 53.2865V54.7685H211.979V53.2865C216.944 53.2865 217.834 52.0273 217.834 44.6161V32.7609C217.834 25.3497 216.944 24.1647 211.979 24.1647V22.6821H227.319C234.952 22.6821 239.177 26.6095 239.177 31.8717C239.177 36.9847 234.952 40.9857 227.319 40.9857H223.094V44.6155C223.094 52.0273 223.984 53.2865 228.95 53.2865ZM227.319 25.3497H223.094V38.2439H227.319C231.47 38.2439 233.396 35.3542 233.396 31.8717C233.396 28.3149 231.47 25.3497 227.319 25.3497ZM290.089 47.8035L289.719 49.1369C289.052 51.5824 288.236 52.4715 282.974 52.4715H281.936C278.083 52.4715 277.416 51.5824 277.416 46.3215V42.9132C283.197 42.9132 283.642 43.4311 283.642 47.2849H285.05V36.2434H283.642C283.642 40.0965 283.197 40.6151 277.416 40.6151V32.3166H281.491C286.754 32.3166 287.569 33.2058 288.236 35.6512L288.607 37.0583H289.792L289.274 30.0933H267.485V31.5004C271.635 31.5004 272.303 32.3896 272.303 37.6511V47.1364C272.303 51.9493 271.736 53.1617 268.464 53.3345C265.354 52.8597 263.219 51.1637 260.298 47.9513L256.889 44.2467C261.484 43.4305 263.929 40.5414 263.929 37.2804C263.929 33.2058 260.446 30.0933 253.925 30.0933H240.882V31.5004C245.031 31.5004 245.698 32.3896 245.698 37.6511V47.1364C245.698 52.3973 245.032 53.3607 240.882 53.3607V54.7685H255.63V53.3607C251.48 53.3607 250.813 52.3973 250.813 47.1364V44.4695H252.073L260.299 54.7685H290.757L291.202 47.8041H290.089V47.8035ZM250.812 42.1707V32.3166H253.85C257.185 32.3166 258.668 34.6135 258.668 37.2811C258.668 39.875 257.185 42.1713 253.85 42.1713H250.812V42.1707ZM305.133 55.7313C302.169 55.7313 299.575 54.1757 298.463 53.2116C298.092 53.5829 297.426 54.6942 297.278 55.7313H295.869V45.5065H297.352C297.945 50.3968 301.353 53.2865 305.726 53.2865C308.097 53.2865 310.025 51.953 310.025 49.7303C310.025 47.8041 308.32 46.3215 305.282 44.9137L301.057 42.9132C298.092 41.5042 295.869 39.0588 295.869 35.7991C295.869 32.2423 299.204 29.2047 303.799 29.2047C306.245 29.2047 308.32 30.0939 309.58 31.131C309.95 30.8346 310.321 30.019 310.544 29.1292H311.952V37.8739H310.395C309.876 34.3907 307.95 31.501 304.022 31.501C301.947 31.501 300.019 32.6866 300.019 34.5399C300.019 36.4661 301.576 37.5032 305.134 39.1337L309.209 41.1342C312.767 42.8383 314.174 45.5814 314.174 47.8041C314.174 52.4715 310.098 55.7313 305.133 55.7313ZM327.959 55.7313C324.994 55.7313 322.399 54.1757 321.288 53.2116C320.918 53.5829 320.251 54.6942 320.103 55.7313H318.695V45.5065H320.177C320.77 50.3968 324.179 53.2865 328.551 53.2865C330.923 53.2865 332.85 51.953 332.85 49.7303C332.85 47.8041 331.146 46.3215 328.106 44.9137L323.882 42.9132C320.918 41.5042 318.694 39.0588 318.694 35.7991C318.694 32.2423 322.029 29.2047 326.624 29.2047C329.07 29.2047 331.144 30.0939 332.405 31.131C332.775 30.8346 333.146 30.019 333.367 29.1292H334.776V37.8739H333.22C332.701 34.3907 330.774 31.501 326.847 31.501C324.772 31.501 322.844 32.6866 322.844 34.5399C322.844 36.4661 324.401 37.5032 327.959 39.1337L332.034 41.1342C335.592 42.8383 336.999 45.5814 336.999 47.8041C336.999 52.4715 332.923 55.7313 327.959 55.7313Z" fill="#464342"/>
<path d="M5.43442 38.2258C5.43442 51.2061 12.9788 62.4236 23.9188 67.7394L8.27395 24.8798C6.45415 28.9583 5.43442 33.4716 5.43442 38.2258ZM60.3727 36.571C60.3727 32.5181 58.9168 29.7114 57.668 27.5268C56.0055 24.8256 54.4472 22.538 54.4472 19.8367C54.4472 16.8222 56.7338 14.0161 59.9546 14.0161C60.1 14.0161 60.2379 14.0342 60.3796 14.0423C54.5445 8.69721 46.7704 5.43373 38.2319 5.43373C26.7739 5.43373 16.6933 11.3117 10.8289 20.2149C11.5984 20.238 12.3235 20.2542 12.9395 20.2542C16.37 20.2542 21.6803 19.838 21.6803 19.838C23.4483 19.7338 23.6567 22.3302 21.8906 22.5392C21.8906 22.5392 20.1138 22.7483 18.1368 22.8519L30.0803 58.3727L37.2577 36.8493L32.1478 22.8506C30.3817 22.747 28.7086 22.538 28.7086 22.538C26.9412 22.4344 27.1484 19.7325 28.9158 19.8367C28.9158 19.8367 34.3321 20.2529 37.5548 20.2529C40.9847 20.2529 46.2955 19.8367 46.2955 19.8367C48.0648 19.7325 48.2726 22.329 46.5058 22.538C46.5058 22.538 44.7254 22.747 42.752 22.8506L54.6044 58.1025L57.8758 47.172C59.2937 42.6362 60.3727 39.3783 60.3727 36.571ZM38.8073 41.0943L28.9669 69.685C31.9051 70.5486 35.0123 71.021 38.2319 71.021C42.0512 71.021 45.7139 70.3608 49.1232 69.1621C49.0352 69.0217 48.9553 68.8726 48.8898 68.7104L38.8073 41.0943ZM67.0103 22.4924C67.1514 23.537 67.2313 24.6583 67.2313 25.8645C67.2313 29.1923 66.6097 32.9331 64.7375 37.6105L54.7192 66.5719C64.4697 60.8867 71.0281 50.3244 71.0281 38.2264C71.0287 32.525 69.5722 27.1637 67.0103 22.4924ZM38.2319 0C17.1514 0 0 17.1479 0 38.2258C0 59.3062 17.1514 76.4535 38.2319 76.4535C59.3118 76.4535 76.4657 59.3062 76.4657 38.2258C76.465 17.1479 59.3118 0 38.2319 0ZM38.2319 74.7013C18.1181 74.7013 1.75302 58.3383 1.75302 38.2258C1.75302 18.1145 18.1174 1.7528 38.2319 1.7528C58.3451 1.7528 74.7089 18.1145 74.7089 38.2258C74.7089 58.3383 58.3451 74.7013 38.2319 74.7013Z" fill="#464342"/>
</g>
<defs>
<clipPath id="clip0_19_291">
<rect width="337" height="77" fill="white"/>
</clipPath>
</defs>
</svg>
