<svg width="44" height="44" viewBox="0 0 44 44" fill="none" xmlns="http://www.w3.org/2000/svg">
<path fill-rule="evenodd" clip-rule="evenodd" d="M38.4353 0.25C39.8447 0.250512 41.1962 0.81062 42.1928 1.80722C43.1894 2.80381 43.7495 4.15534 43.75 5.56473V38.4353C43.7495 39.8447 43.1894 41.1962 42.1928 42.1928C41.1962 43.1894 39.8447 43.7495 38.4353 43.75H5.56473C4.15534 43.7495 2.80381 43.1894 1.80722 42.1928C0.81062 41.1962 0.250512 39.8447 0.25 38.4353V5.56473C0.250512 4.15534 0.81062 2.80381 1.80722 1.80722C2.80381 0.81062 4.15534 0.250512 5.56473 0.25H38.4353ZM36.6547 15.1715C36.4806 14.523 36.1391 13.9318 35.6643 13.4571C35.1896 12.9823 34.5984 12.6408 33.9499 12.4667C31.5642 11.8287 22 11.8287 22 11.8287C22 11.8287 12.4358 11.8287 10.0501 12.4687C9.40164 12.6427 8.81039 12.9843 8.33565 13.459C7.86092 13.9337 7.51939 14.525 7.34533 15.1734C6.7054 17.5591 6.7054 22.5355 6.7054 22.5355C6.7054 22.5355 6.7054 27.5119 7.34533 29.8977C7.51939 30.5461 7.86092 31.1373 8.33565 31.6121C8.81039 32.0868 9.40164 32.4283 10.0501 32.6024C12.4358 33.2404 22 33.2404 22 33.2404C22 33.2404 31.5642 33.2404 33.9499 32.6024C34.5984 32.4283 35.1896 32.0868 35.6643 31.6121C36.1391 31.1373 36.4806 30.5461 36.6547 29.8977C37.2946 27.5119 37.2946 22.5355 37.2946 22.5355C37.2946 22.5355 37.2946 17.5591 36.6547 15.1734V15.1715ZM18.9415 27.1214V17.9458L26.8875 22.5336L18.9415 27.1214Z" fill="#673DE6"/>
</svg>
